<?xml version="1.0" encoding="UTF-8"?>
<!DOCTYPE svg PUBLIC "-//W3C//DTD SVG 1.1//EN" "http://www.w3.org/Graphics/SVG/1.1/DTD/svg11.dtd">
<!-- Creator: CorelDRAW 2017 -->
<svg xmlns="http://www.w3.org/2000/svg" xml:space="preserve" width="1.9685in" height="1.9685in" version="1.1" style="shape-rendering:geometricPrecision; text-rendering:geometricPrecision; image-rendering:optimizeQuality; fill-rule:evenodd; clip-rule:evenodd"
viewBox="0 0 1969 1969"
 xmlns:xlink="http://www.w3.org/1999/xlink">
 <defs>
  <style type="text/css">
   <![CDATA[
    .str0 {stroke:#FEFEFE;stroke-width:7.87402}
    .fil25 {fill:#FEFEFE}
    .fil19 {fill:url(#id25)}
    .fil24 {fill:url(#id26)}
    .fil7 {fill:url(#id27)}
    .fil9 {fill:url(#id28)}
    .fil20 {fill:url(#id29)}
    .fil23 {fill:url(#id30)}
    .fil8 {fill:url(#id31)}
    .fil18 {fill:url(#id32)}
    .fil10 {fill:url(#id33)}
    .fil6 {fill:url(#id34)}
    .fil11 {fill:url(#id35)}
    .fil14 {fill:url(#id36)}
    .fil16 {fill:url(#id37)}
    .fil4 {fill:url(#id38)}
    .fil17 {fill:url(#id39)}
    .fil13 {fill:url(#id40)}
    .fil3 {fill:url(#id41)}
    .fil2 {fill:url(#id42)}
    .fil12 {fill:url(#id43)}
    .fil0 {fill:url(#id44)}
    .fil5 {fill:url(#id45)}
    .fil22 {fill:url(#id46)}
    .fil15 {fill:url(#id47)}
    .fil1 {fill:url(#id48)}
    .fil21 {fill:url(#id49)}
   ]]>
  </style>
    <mask id="id0">
  <linearGradient id="id1" gradientUnits="userSpaceOnUse" x1="-4276" y1="3895" x2="-4286" y2="4145">
   <stop offset="0" style="stop-opacity:1; stop-color:white"/>
   <stop offset="1" style="stop-opacity:0; stop-color:white"/>
  </linearGradient>
     <rect style="fill:url(#id1)" x="-4303" y="3906" width="49" height="256"/>
    </mask>
    <mask id="id2">
  <linearGradient id="id3" gradientUnits="userSpaceOnUse" x1="-4322" y1="3893" x2="-4317" y2="4194">
   <stop offset="0" style="stop-opacity:1; stop-color:white"/>
   <stop offset="1" style="stop-opacity:0; stop-color:white"/>
  </linearGradient>
     <rect style="fill:url(#id3)" x="-4345" y="3898" width="50" height="298"/>
    </mask>
    <mask id="id4">
  <linearGradient id="id5" gradientUnits="userSpaceOnUse" x1="-4370" y1="3906" x2="-4368" y2="4189">
   <stop offset="0" style="stop-opacity:1; stop-color:white"/>
   <stop offset="1" style="stop-opacity:0; stop-color:white"/>
  </linearGradient>
     <rect style="fill:url(#id5)" x="-4388" y="3898" width="48" height="298"/>
    </mask>
    <mask id="id6">
  <linearGradient id="id7" gradientUnits="userSpaceOnUse" x1="-4390" y1="3871" x2="-4392" y2="4147">
   <stop offset="0" style="stop-opacity:1; stop-color:white"/>
   <stop offset="1" style="stop-opacity:0; stop-color:white"/>
  </linearGradient>
     <rect style="fill:url(#id7)" x="-4423" y="3907" width="46" height="253"/>
    </mask>
    <mask id="id8">
  <linearGradient id="id9" gradientUnits="userSpaceOnUse" x1="-4420" y1="3881" x2="-4451" y2="4132">
   <stop offset="0" style="stop-opacity:1; stop-color:white"/>
   <stop offset="1" style="stop-opacity:0; stop-color:white"/>
  </linearGradient>
     <rect style="fill:url(#id9)" x="-4461" y="3930" width="51" height="194"/>
    </mask>
    <mask id="id10">
  <linearGradient id="id11" gradientUnits="userSpaceOnUse" x1="-4241" y1="3905" x2="-4241" y2="4101">
   <stop offset="0" style="stop-opacity:1; stop-color:white"/>
   <stop offset="1" style="stop-opacity:0; stop-color:white"/>
  </linearGradient>
     <rect style="fill:url(#id11)" x="-4270" y="3930" width="51" height="194"/>
    </mask>
    <clipPath id="id12">
     <path d="M237 1915l-144 0 0 -1770 144 0 0 1770 0 0z"/>
    </clipPath>
    <clipPath id="id13">
     <path d="M1311 1491l-213 0 -80 -250 -252 0 -76 250 -205 0 6 -17 189 0 76 -250 261 0 80 250 200 0 -293 -902 9 0 1 4 297 915 0 0z"/>
    </clipPath>
    <clipPath id="id14">
     <path d="M1476 761c-61,0 -108,-45 -108,-105 0,-3 0,-5 0,-8 2,54 45,95 101,95 60,0 104,-42 104,-99l0 0 0 0c-1,-35 -16,-64 -41,-81 32,17 52,51 53,92 0,61 -46,105 -110,105l0 0z"/>
    </clipPath>
    <clipPath id="id15">
     <path d="M1575 1491l-198 0 0 -675 0 0 0 657 186 0 0 -657 12 0 0 675 0 0z"/>
    </clipPath>
    <clipPath id="id16">
     <path d="M979 1077l-173 0 59 -189c9,-31 17,-66 26,-100 9,34 18,68 28,100l60 188 0 0z"/>
    </clipPath>
    <clipPath id="id17">
     <path d="M983 1077l-4 0 -60 -188c-10,-32 -20,-67 -28,-100 -8,34 -17,68 -26,100l-59 189 -16 0 63 -202c9,-33 18,-71 27,-107 1,-6 3,-11 4,-17 10,40 21,84 34,124l64 201 0 0z"/>
    </clipPath>
   <clipPath id="id18">
    <path d="M-4473 5543l-24 0 0 0 0 0 0 -291 24 0 0 291 0 0z"/>
   </clipPath>
   <clipPath id="id19">
    <path d="M-4398 5467l-32 0 0 -149 3 0c6,-1 12,-2 18,-2l37 0c13,2 23,6 30,12 8,7 13,16 15,27l0 16c-1,11 -6,20 -13,26 -11,11 -28,17 -48,17 -3,0 -7,0 -10,0l0 54zm-32 0l0 0 30 0 0 -55c4,1 7,1 11,1 20,0 36,-6 47,-16 8,-8 13,-20 13,-34l0 0 0 0c0,-14 -5,-26 -15,-34 -10,-8 -25,-12 -44,-12 -16,0 -29,1 -41,3l-2 0 0 147 0 0z"/>
   </clipPath>
   <clipPath id="id20">
    <path d="M-4401 5466l-27 0 0 -144 0 0c11,-2 25,-3 41,-3 19,0 33,4 43,12 9,8 14,19 14,32 0,14 -4,25 -12,33 -11,10 -27,16 -46,16 -3,0 -7,0 -11,-1l-2 0 0 2 0 53zm2 -78l0 0c3,1 6,1 11,1 19,0 30,-9 30,-25l0 0 0 0c0,-15 -10,-23 -27,-23 -7,0 -11,1 -13,1l0 45 0 0 0 0z"/>
   </clipPath>
   <clipPath id="id21">
    <path d="M-4388 5387c-4,0 -7,0 -10,-1l0 -44c3,0 6,-1 12,-1 5,0 9,1 13,2 6,2 10,6 12,12 1,2 1,5 1,8 0,15 -11,24 -29,24l0 0z"/>
   </clipPath>
   <clipPath id="id22">
    <path d="M-4389 5389c-4,0 -8,0 -11,-1l0 -45c2,0 7,-1 13,-1 5,0 10,1 14,2 -4,-1 -8,-2 -13,-2 -6,0 -10,0 -12,1l0 44c3,1 6,1 10,1 18,0 29,-9 29,-24 0,-3 0,-6 -1,-8 1,3 1,6 1,9 0,15 -11,25 -30,25l0 0z"/>
   </clipPath>
   <clipPath id="id23">
    <path d="M-4287 5467l-31 0 0 -73c0,-15 0,-25 -1,-34l0 -1 27 0 1 18c5,-11 14,-17 23,-19l14 0 0 27 -1 0c-2,0 -5,-1 -8,-1 -12,0 -21,7 -23,20 0,2 -1,5 -1,8l0 56zm-31 0l0 0 29 0 0 -55c0,-3 0,-6 1,-8 2,-12 11,-20 24,-20 3,0 6,0 8,1l0 -25 0 0c-2,0 -4,-1 -6,-1 -12,0 -24,8 -29,23l-1 0 -1 -20 -25 0 0 0c1,9 1,20 1,34l0 72 0 0z"/>
   </clipPath>
   <clipPath id="id24">
    <path d="M-4290 5466l-26 0 0 -71c0,-15 0,-24 -1,-33l22 0 1 19 0 2 2 0 1 0 1 0 0 -1c6,-16 18,-21 28,-21 2,0 3,0 5,0l0 22c-2,0 -4,0 -6,0 -13,0 -23,8 -26,22 0,2 -1,5 -1,8l0 54 0 0z"/>
   </clipPath>
  <linearGradient id="id25" gradientUnits="userSpaceOnUse" x1="-4505" y1="5543" x2="-4505" y2="5236">
   <stop offset="0" style="stop-opacity:1; stop-color:#5A4E67"/>
   <stop offset="1" style="stop-opacity:1; stop-color:#766485"/>
  </linearGradient>
  <linearGradient id="id26" gradientUnits="userSpaceOnUse" x1="-4287" y1="5358" x2="-4287" y2="5467">
   <stop offset="0" style="stop-opacity:1; stop-color:#DED3E5"/>
   <stop offset="1" style="stop-opacity:1; stop-color:#C9BBD7"/>
  </linearGradient>
  <linearGradient id="id27" gradientUnits="userSpaceOnUse" x1="-4337" y1="4196" x2="-4337" y2="4208">
   <stop offset="0" style="stop-opacity:1; stop-color:#8CCF3A"/>
   <stop offset="1" style="stop-opacity:1; stop-color:#00A859"/>
  </linearGradient>
  <linearGradient id="id28" gradientUnits="userSpaceOnUse" x1="1031" y1="1915" x2="1031" y2="145">
   <stop offset="0" style="stop-opacity:1; stop-color:#A95937"/>
   <stop offset="1" style="stop-opacity:1; stop-color:#E7883B"/>
  </linearGradient>
  <linearGradient id="id29" gradientUnits="userSpaceOnUse" x1="-4344" y1="5252" x2="-4344" y2="5543">
   <stop offset="0" style="stop-opacity:1; stop-color:#A388B8"/>
   <stop offset="1" style="stop-opacity:1; stop-color:#5A4E67"/>
  </linearGradient>
  <linearGradient id="id30" gradientUnits="userSpaceOnUse" xlink:href="#id26" x1="-4379" y1="5317" x2="-4379" y2="5467">
  </linearGradient>
  <linearGradient id="id31" gradientUnits="userSpaceOnUse" x1="938" y1="1823" x2="938" y2="53">
   <stop offset="0" style="stop-opacity:1; stop-color:#B2943E"/>
   <stop offset="1" style="stop-opacity:1; stop-color:#FCD64E"/>
  </linearGradient>
  <linearGradient id="id32" gradientUnits="userSpaceOnUse" x1="-4512" y1="5382" x2="-4204" y2="5382">
   <stop offset="0" style="stop-opacity:1; stop-color:#D5C5DC"/>
   <stop offset="1" style="stop-opacity:1; stop-color:#B9A8CD"/>
  </linearGradient>
  <linearGradient id="id33" gradientUnits="userSpaceOnUse" x1="46" y1="1916" x2="46" y2="53">
   <stop offset="0" style="stop-opacity:1; stop-color:#874E33"/>
   <stop offset="1" style="stop-opacity:1; stop-color:#CF6C41"/>
  </linearGradient>
  <linearGradient id="id34" gradientUnits="userSpaceOnUse" x1="-4251" y1="3944" x2="-4256" y2="4106">
   <stop offset="0" style="stop-opacity:1; stop-color:#A8CF45"/>
   <stop offset="1" style="stop-opacity:1; stop-color:#FEFEFE"/>
  </linearGradient>
  <linearGradient id="id35" gradientUnits="userSpaceOnUse" x1="892" y1="1473" x2="892" y2="566">
   <stop offset="0" style="stop-opacity:1; stop-color:#FCD64E"/>
   <stop offset="1" style="stop-opacity:1; stop-color:#FCD64E"/>
  </linearGradient>
  <linearGradient id="id36" gradientUnits="userSpaceOnUse" x1="892" y1="1473" x2="892" y2="566">
   <stop offset="0" style="stop-opacity:1; stop-color:#FCDF7E"/>
   <stop offset="1" style="stop-opacity:1; stop-color:#FCDF7E"/>
  </linearGradient>
  <linearGradient id="id37" gradientUnits="userSpaceOnUse" xlink:href="#id36" x1="1471" y1="744" x2="1471" y2="545">
  </linearGradient>
  <linearGradient id="id38" gradientUnits="userSpaceOnUse" xlink:href="#id34" x1="-4386" y1="3913" x2="-4392" y2="4147">
  </linearGradient>
  <linearGradient id="id39" gradientUnits="userSpaceOnUse" xlink:href="#id36" x1="1470" y1="1473" x2="1470" y2="811">
  </linearGradient>
  <linearGradient id="id40" gradientUnits="userSpaceOnUse" xlink:href="#id35" x1="1470" y1="1473" x2="1470" y2="811">
  </linearGradient>
  <linearGradient id="id41" gradientUnits="userSpaceOnUse" xlink:href="#id34" x1="-4356" y1="3903" x2="-4358" y2="4181">
  </linearGradient>
  <linearGradient id="id42" gradientUnits="userSpaceOnUse" xlink:href="#id34" x1="-4331" y1="3902" x2="-4332" y2="4184">
  </linearGradient>
  <linearGradient id="id43" gradientUnits="userSpaceOnUse" xlink:href="#id35" x1="1471" y1="744" x2="1471" y2="545">
  </linearGradient>
  <linearGradient id="id44" gradientUnits="userSpaceOnUse" x1="-4333" y1="3902" x2="-4339" y2="4193">
   <stop offset="0" style="stop-opacity:1; stop-color:#00A859"/>
   <stop offset="0.701961" style="stop-opacity:1; stop-color:#34AA2C"/>
   <stop offset="1" style="stop-opacity:1; stop-color:#A8CF45"/>
  </linearGradient>
  <linearGradient id="id45" gradientUnits="userSpaceOnUse" xlink:href="#id34" x1="-4434" y1="3949" x2="-4428" y2="4099">
  </linearGradient>
  <linearGradient id="id46" gradientUnits="userSpaceOnUse" x1="-4343" y1="5251" x2="-4343" y2="5543">
   <stop offset="0" style="stop-opacity:1; stop-color:#665673"/>
   <stop offset="1" style="stop-opacity:1; stop-color:#3E3647"/>
  </linearGradient>
  <linearGradient id="id47" gradientUnits="userSpaceOnUse" xlink:href="#id36" x1="892" y1="1219" x2="892" y2="894">
  </linearGradient>
  <linearGradient id="id48" gradientUnits="userSpaceOnUse" xlink:href="#id34" x1="-4291" y1="3913" x2="-4295" y2="4149">
  </linearGradient>
  <linearGradient id="id49" gradientUnits="userSpaceOnUse" xlink:href="#id46" x1="-4343" y1="5252" x2="-4343" y2="5543">
  </linearGradient>
 </defs>
 <g id="Layer_x0020_1">
  <metadata id="CorelCorpID_0Corel-Layer"/>
  <g id="_1899836855696">
   <path class="fil0" d="M-4251 3944c-54,-56 -118,-58 -179,0 -59,72 -10,167 86,249l14 0c82,-83 145,-172 80,-249z"/>
   <path class="fil1" style="mask:url(#id0)" d="M-4283 3917c39,77 32,152 -3,227l-12 14c27,-87 29,-170 -1,-249l16 8z"/>
   <path class="fil2" style="mask:url(#id2)" d="M-4331 3902c39,88 44,197 9,282l-9 9c27,-99 19,-201 -11,-291l11 0z"/>
   <path class="fil3" style="mask:url(#id4)" d="M-4356 3903c-39,88 -37,192 -2,278l15 12c-27,-99 -33,-200 -2,-291l-10 1z"/>
   <path class="fil4" style="mask:url(#id6)" d="M-4392 3916c-39,69 -35,163 0,231l9 10c-27,-78 -28,-175 2,-246l-12 6z"/>
   <path class="fil5" style="mask:url(#id8)" d="M-4434 3949c-39,69 -24,90 11,157l10 15c-27,-78 -36,-116 -6,-187l-16 15z"/>
   <path class="fil6" style="mask:url(#id10)" d="M-4245 3948c39,69 24,90 -11,157l-10 15c27,-78 36,-116 6,-187l16 15z"/>
   <rect class="fil7" x="-4344" y="4196" width="14" height="12" rx="1" ry="1"/>
  </g>
  <g id="_1899836850992">
   <polygon class="fil8" points="93,1823 93,1823 93,145 0,53 0,1823 0,53 1876,53 1876,145 93,145 "/>
   <path class="fil9" d="M1969 1915l-1731 0 0 -1770 1731 0 0 1770zm-1731 -1770l-144 0 144 0zm-144 0l0 1770 0 -1770z"/>
   <polygon class="fil10" points="93,1915 0,1824 0,53 93,145 "/>
   <g style="clip-path:url(#id12)">
    <image x="79" y="131" width="173" height="1796" xlink:href="AI_Images\AI_ImgID1.png"/>
   </g>
   <g style="clip-path:url(#id13)">
    <image x="479" y="566" width="837" height="933" xlink:href="AI_Images\AI_ImgID2.png"/>
   </g>
   <g style="clip-path:url(#id14)">
    <image x="1362" y="556" width="231" height="211" xlink:href="AI_Images\AI_ImgID3.png"/>
   </g>
   <g style="clip-path:url(#id15)">
    <image x="1372" y="809" width="207" height="690" xlink:href="AI_Images\AI_ImgID4.png"/>
   </g>
   <path class="fil11" d="M1283 1464l-179 0 -78 -243 -2 -7 -276 0 -2 7 -74 243 -171 0 284 -887 209 0 288 887zm-493 -387l193 0 -64 -201c-13,-40 -24,-84 -34,-124 -1,6 -3,11 -4,17 -9,36 -18,73 -27,107l-63 202z"/>
   <path class="fil12" d="M1470 734c-52,0 -91,-38 -91,-89 0,-52 39,-90 93,-90 53,0 91,37 93,90 0,52 -40,89 -94,89z"/>
   <polygon class="fil13" points="1388,1464 1553,1464 1553,821 1388,821 "/>
   <path class="fil14" d="M1297 1473l-200 0 -80 -250 -261 0 -76 250 -192 0 291 -907 223 0 295 907zm-548 -260l276 0 2 7 78 243 179 0 -288 -887 -209 0 -284 887 171 0 74 -243 2 -7z"/>
   <g style="clip-path:url(#id16)">
    <image x="799" y="781" width="183" height="303" xlink:href="AI_Images\AI_ImgID5.png"/>
   </g>
   <g style="clip-path:url(#id17)">
    <image x="785" y="747" width="203" height="336" xlink:href="AI_Images\AI_ImgID6.png"/>
   </g>
   <path class="fil15" d="M983 1077l-4 0 4 0zm-4 0l-173 0 173 0zm-173 0l-16 0 16 0z"/>
   <path class="fil16" d="M1470 744c-58,0 -101,-42 -101,-99 0,-58 43,-100 103,-100 59,0 101,41 103,100 0,57 -44,99 -104,99zm1 -189c-54,0 -93,38 -93,90 0,50 39,89 91,89 54,0 94,-38 94,-89 -1,-53 -40,-90 -93,-90z"/>
   <path class="fil17" d="M1563 1473l-186 0 0 -662 186 0 0 662zm-176 -652l0 643 166 0 0 -643 -166 0z"/>
  </g>
  <path class="fil18" d="M-4512 5528l0 -291 0 291zm0 -291l309 0 0 15 -293 0 0 0 -15 -15z"/>
  <path class="fil19" d="M-4497 5543l0 0 0 0 0 0zm0 0l-15 -15 0 -291 15 15 0 0 0 0 0 291z"/>
  <path class="fil20" d="M-4183 5543l-298 0 0 -291 298 0 0 291zm-298 -291l-25 0 25 0zm-25 0l0 291 0 -291z"/>
  <g style="clip-path:url(#id18)">
   <image x="-4500" y="5249" width="29" height="296" xlink:href="AI_Images\AI_ImgID7.png"/>
  </g>
  <path class="fil21" d="M-4327 5371l0 -16c0,3 1,5 1,8 0,3 0,6 -1,9zm-45 -55l-37 0c7,-1 15,-1 23,-1 5,0 10,0 14,1z"/>
  <path class="fil22" d="M-4254 5385l0 0 0 -27 -14 0c2,-1 4,-1 7,-1 3,0 4,0 7,1l1 0 0 27z"/>
  <g style="clip-path:url(#id19)">
   <image x="-4431" y="5315" width="105" height="153" xlink:href="AI_Images\AI_ImgID8.png"/>
  </g>
  <g style="clip-path:url(#id20)">
   <image x="-4430" y="5317" width="100" height="150" xlink:href="AI_Images\AI_ImgID9.png"/>
  </g>
  <path class="fil23" d="M-4400 5467l-30 0 0 -147 2 0c11,-2 25,-3 41,-3 19,0 34,4 44,12 9,8 15,20 15,34 0,14 -4,26 -13,34 -11,11 -27,16 -47,16 -3,0 -7,0 -11,-1l0 55zm12 -149c-16,0 -29,1 -41,3l0 0 0 144 27 0 0 -55 2 0c4,1 7,1 11,1 20,0 36,-5 46,-16 8,-8 12,-19 12,-33 0,-13 -5,-25 -14,-32 -9,-8 -24,-12 -43,-12z"/>
  <g style="clip-path:url(#id21)">
   <image x="-4399" y="5341" width="41" height="47" xlink:href="AI_Images\AI_ImgID10.png"/>
  </g>
  <g style="clip-path:url(#id22)">
   <image x="-4401" y="5340" width="43" height="50" xlink:href="AI_Images\AI_ImgID11.png"/>
  </g>
  <g style="clip-path:url(#id23)">
   <image x="-4319" y="5356" width="66" height="112" xlink:href="AI_Images\AI_ImgID12.png"/>
  </g>
  <g style="clip-path:url(#id24)">
   <image x="-4318" y="5359" width="62" height="108" xlink:href="AI_Images\AI_ImgID13.png"/>
  </g>
  <path class="fil24" d="M-4288 5467l-29 0 0 -72c0,-14 0,-25 -1,-34l25 0 1 20 1 0c5,-15 18,-23 29,-23 3,0 4,0 6,1l0 25c-2,0 -5,-1 -8,-1 -13,0 -22,8 -24,20 0,2 -1,5 -1,8l0 55zm-28 -105c1,8 1,18 1,33l0 71 26 0 0 -54c0,-3 0,-6 1,-8 3,-13 12,-22 26,-22 2,0 4,0 6,0l0 -22c-1,0 -3,0 -5,0 -9,0 -22,6 -28,21l0 1 -1 0 -1 0 -2 0 0 -2 -1 -19 -22 0z"/>
  <circle class="fil25 str0" cx="-4342" cy="3591" r="177"/>
 </g>
</svg>
