<?xml version="1.0" encoding="UTF-8"?>
<!DOCTYPE svg PUBLIC "-//W3C//DTD SVG 1.1//EN" "http://www.w3.org/Graphics/SVG/1.1/DTD/svg11.dtd">
<!-- Creator: CorelDRAW 2017 -->
<svg xmlns="http://www.w3.org/2000/svg" xml:space="preserve" width="1.9685in" height="1.9685in" version="1.1" style="shape-rendering:geometricPrecision; text-rendering:geometricPrecision; image-rendering:optimizeQuality; fill-rule:evenodd; clip-rule:evenodd"
viewBox="0 0 1969 1969"
 xmlns:xlink="http://www.w3.org/1999/xlink">
 <defs>
  <style type="text/css">
   <![CDATA[
    .str1 {stroke:#FEFEFE;stroke-width:7.87402}
    .str0 {stroke:#397CBB;stroke-width:3}
    .fil38 {fill:#FEFEFE}
    .fil11 {fill:#0079CC}
    .fil12 {fill:#73B5E3}
    .fil8 {fill:#C3002F}
    .fil9 {fill:#DC0030}
    .fil10 {fill:white}
    .fil13 {fill:#6ECEEE;fill-rule:nonzero}
    .fil15 {fill:url(#id32)}
    .fil16 {fill:url(#id33)}
    .fil17 {fill:url(#id34)}
    .fil32 {fill:url(#id35)}
    .fil37 {fill:url(#id36)}
    .fil18 {fill:url(#id37)}
    .fil29 {fill:url(#id38)}
    .fil30 {fill:url(#id39)}
    .fil26 {fill:url(#id40)}
    .fil14 {fill:url(#id41)}
    .fil23 {fill:url(#id42)}
    .fil21 {fill:url(#id43)}
    .fil33 {fill:url(#id44)}
    .fil36 {fill:url(#id45)}
    .fil27 {fill:url(#id46)}
    .fil19 {fill:url(#id47)}
    .fil28 {fill:url(#id48)}
    .fil24 {fill:url(#id49)}
    .fil31 {fill:url(#id50)}
    .fil7 {fill:url(#id51)}
    .fil20 {fill:url(#id52)}
    .fil25 {fill:url(#id53)}
    .fil22 {fill:url(#id54)}
    .fil3 {fill:url(#id55)}
    .fil4 {fill:url(#id56)}
    .fil1 {fill:url(#id57)}
    .fil0 {fill:url(#id58)}
    .fil5 {fill:url(#id59)}
    .fil6 {fill:url(#id60)}
    .fil35 {fill:url(#id61)}
    .fil34 {fill:url(#id62)}
    .fil2 {fill:url(#id63)}
   ]]>
  </style>
    <mask id="id0">
  <linearGradient id="id1" gradientUnits="userSpaceOnUse" x1="-4276" y1="3895" x2="-4286" y2="4145">
   <stop offset="0" style="stop-opacity:1; stop-color:white"/>
   <stop offset="1" style="stop-opacity:0; stop-color:white"/>
  </linearGradient>
     <rect style="fill:url(#id1)" x="-4303" y="3906" width="49" height="256"/>
    </mask>
    <mask id="id2">
  <linearGradient id="id3" gradientUnits="userSpaceOnUse" x1="-4322" y1="3893" x2="-4317" y2="4194">
   <stop offset="0" style="stop-opacity:1; stop-color:white"/>
   <stop offset="1" style="stop-opacity:0; stop-color:white"/>
  </linearGradient>
     <rect style="fill:url(#id3)" x="-4345" y="3898" width="50" height="298"/>
    </mask>
    <mask id="id4">
  <linearGradient id="id5" gradientUnits="userSpaceOnUse" x1="-4370" y1="3906" x2="-4368" y2="4189">
   <stop offset="0" style="stop-opacity:1; stop-color:white"/>
   <stop offset="1" style="stop-opacity:0; stop-color:white"/>
  </linearGradient>
     <rect style="fill:url(#id5)" x="-4388" y="3898" width="48" height="298"/>
    </mask>
    <mask id="id6">
  <linearGradient id="id7" gradientUnits="userSpaceOnUse" x1="-4390" y1="3871" x2="-4392" y2="4147">
   <stop offset="0" style="stop-opacity:1; stop-color:white"/>
   <stop offset="1" style="stop-opacity:0; stop-color:white"/>
  </linearGradient>
     <rect style="fill:url(#id7)" x="-4423" y="3907" width="46" height="253"/>
    </mask>
    <mask id="id8">
  <linearGradient id="id9" gradientUnits="userSpaceOnUse" x1="-4420" y1="3881" x2="-4451" y2="4132">
   <stop offset="0" style="stop-opacity:1; stop-color:white"/>
   <stop offset="1" style="stop-opacity:0; stop-color:white"/>
  </linearGradient>
     <rect style="fill:url(#id9)" x="-4461" y="3930" width="51" height="194"/>
    </mask>
    <mask id="id10">
  <linearGradient id="id11" gradientUnits="userSpaceOnUse" x1="-4241" y1="3905" x2="-4241" y2="4101">
   <stop offset="0" style="stop-opacity:1; stop-color:white"/>
   <stop offset="1" style="stop-opacity:0; stop-color:white"/>
  </linearGradient>
     <rect style="fill:url(#id11)" x="-4270" y="3930" width="51" height="194"/>
    </mask>
   <clipPath id="id12">
    <path d="M-4470 4622l-24 0 0 -291 24 0 0 291 0 0z"/>
   </clipPath>
   <clipPath id="id13">
    <path d="M-4406 4552l-32 0 0 -149 0 0 0 146 30 0 0 -55c4,1 7,1 11,1 20,0 36,-6 47,-16 8,-8 13,-20 13,-34l0 0 0 0c0,-14 -5,-26 -15,-34 -1,0 -1,-1 -2,-1 1,1 2,2 3,2 10,8 15,21 15,34 0,14 -5,27 -13,35 -11,11 -28,17 -48,17 -3,0 -7,0 -10,0l0 54 0 0z"/>
   </clipPath>
   <clipPath id="id14">
    <path d="M-4295 4552c-12,0 -25,-3 -33,-8l-2 -1 1 -2 1 1c9,5 21,8 33,8 28,0 45,-13 45,-35l0 0 0 0c0,-11 -4,-19 -13,-25 10,7 14,15 15,27 0,22 -18,36 -46,36zm14 -34c0,0 0,0 0,0 0,-4 -1,-7 -15,-12 -26,-9 -31,-23 -31,-33 0,-2 0,-3 0,-5 0,1 0,2 0,3l0 0 0 0c0,10 5,24 30,32 14,5 16,8 16,13 0,1 0,1 0,2zm-12 -44c-3,-2 -4,-4 -4,-7 0,-6 5,-9 13,-9 9,0 17,3 21,6l2 1 7 -22 2 1 -7 25 -3 -2c-4,-3 -12,-6 -21,-6 -7,0 -12,3 -12,8 0,2 1,4 3,5l0 0z"/>
   </clipPath>
   <clipPath id="id15">
    <path d="M-4397 4471c-4,0 -7,0 -9,0l0 -43c2,0 6,-1 12,-1 17,0 26,8 26,22 0,1 0,1 0,2 -2,13 -13,21 -30,21l0 0z"/>
   </clipPath>
   <clipPath id="id16">
    <path d="M-4406 4470c-1,0 -1,0 -2,0l0 -45c2,0 7,-1 13,-1 18,0 27,8 27,23 0,1 0,3 0,4 0,-1 0,-1 0,-2 0,-14 -9,-22 -26,-22 -6,0 -10,0 -12,1l0 43 0 0z"/>
   </clipPath>
   <clipPath id="id17">
    <path d="M-4470 5086l-24 0 0 -291 24 0 0 291 0 0z"/>
   </clipPath>
   <clipPath id="id18">
    <path d="M-4294 5016l-35 0 -13 -41 -41 0 -12 41 -34 0 1 -3 31 0 13 -41 43 0 13 41 33 0 -48 -148 1 0 0 1 49 151 0 0z"/>
   </clipPath>
   <clipPath id="id19">
    <path d="M-4267 4896c-10,0 -18,-7 -18,-17 0,0 0,-1 0,-1 0,9 7,16 17,16 10,0 17,-7 17,-16l0 0 0 0c0,-6 -3,-10 -7,-13 5,3 9,8 9,15 0,10 -8,17 -18,17l0 0z"/>
   </clipPath>
   <clipPath id="id20">
    <path d="M-4250 5016l-33 0 0 -111 0 0 0 108 31 0 0 -108 2 0 0 111 0 0z"/>
   </clipPath>
   <clipPath id="id21">
    <path d="M-4348 4948l-29 0 10 -31c1,-5 3,-11 4,-16 1,6 3,11 5,17l10 31 0 0z"/>
   </clipPath>
   <clipPath id="id22">
    <path d="M-4348 4948l-1 0 -10 -31c-2,-5 -3,-11 -5,-17 -1,6 -3,11 -4,16l-10 31 -3 0 10 -33c2,-6 3,-12 5,-18 0,-1 0,-2 1,-3 2,7 4,14 6,20l11 33 0 0z"/>
   </clipPath>
   <clipPath id="id23">
    <path d="M-4473 5543l-24 0 0 0 0 0 0 -291 24 0 0 291 0 0z"/>
   </clipPath>
   <clipPath id="id24">
    <path d="M-4398 5467l-32 0 0 -149 3 0c6,-1 12,-2 18,-2l37 0c13,2 23,6 30,12 8,7 13,16 15,27l0 16c-1,11 -6,20 -13,26 -11,11 -28,17 -48,17 -3,0 -7,0 -10,0l0 54zm-32 0l0 0 30 0 0 -55c4,1 7,1 11,1 20,0 36,-6 47,-16 8,-8 13,-20 13,-34l0 0 0 0c0,-14 -5,-26 -15,-34 -10,-8 -25,-12 -44,-12 -16,0 -29,1 -41,3l-2 0 0 147 0 0z"/>
   </clipPath>
   <clipPath id="id25">
    <path d="M-4401 5466l-27 0 0 -144 0 0c11,-2 25,-3 41,-3 19,0 33,4 43,12 9,8 14,19 14,32 0,14 -4,25 -12,33 -11,10 -27,16 -46,16 -3,0 -7,0 -11,-1l-2 0 0 2 0 53zm2 -78l0 0c3,1 6,1 11,1 19,0 30,-9 30,-25l0 0 0 0c0,-15 -10,-23 -27,-23 -7,0 -11,1 -13,1l0 45 0 0 0 0z"/>
   </clipPath>
   <clipPath id="id26">
    <path d="M-4388 5387c-4,0 -7,0 -10,-1l0 -44c3,0 6,-1 12,-1 5,0 9,1 13,2 6,2 10,6 12,12 1,2 1,5 1,8 0,15 -11,24 -29,24l0 0z"/>
   </clipPath>
   <clipPath id="id27">
    <path d="M-4389 5389c-4,0 -8,0 -11,-1l0 -45c2,0 7,-1 13,-1 5,0 10,1 14,2 -4,-1 -8,-2 -13,-2 -6,0 -10,0 -12,1l0 44c3,1 6,1 10,1 18,0 29,-9 29,-24 0,-3 0,-6 -1,-8 1,3 1,6 1,9 0,15 -11,25 -30,25l0 0z"/>
   </clipPath>
   <clipPath id="id28">
    <path d="M-4287 5467l-31 0 0 -73c0,-15 0,-25 -1,-34l0 -1 27 0 1 18c5,-11 14,-17 23,-19l14 0 0 27 -1 0c-2,0 -5,-1 -8,-1 -12,0 -21,7 -23,20 0,2 -1,5 -1,8l0 56zm-31 0l0 0 29 0 0 -55c0,-3 0,-6 1,-8 2,-12 11,-20 24,-20 3,0 6,0 8,1l0 -25 0 0c-2,0 -4,-1 -6,-1 -12,0 -24,8 -29,23l-1 0 -1 -20 -25 0 0 0c1,9 1,20 1,34l0 72 0 0z"/>
   </clipPath>
   <clipPath id="id29">
    <path d="M-4290 5466l-26 0 0 -71c0,-15 0,-24 -1,-33l22 0 1 19 0 2 2 0 1 0 1 0 0 -1c6,-16 18,-21 28,-21 2,0 3,0 5,0l0 22c-2,0 -4,0 -6,0 -13,0 -23,8 -26,22 0,2 -1,5 -1,8l0 54 0 0z"/>
   </clipPath>
   <clipPath id="id30">
    <rect x="-4550" y="2988" width="379" height="311"/>
   </clipPath>
   <clipPath id="id31">
    <rect x="-4478" y="3500" width="273" height="182"/>
   </clipPath>
  <linearGradient id="id32" gradientUnits="userSpaceOnUse" x1="-4502" y1="4622" x2="-4502" y2="4316">
   <stop offset="0" style="stop-opacity:1; stop-color:#2E3E5C"/>
   <stop offset="1" style="stop-opacity:1; stop-color:#26629F"/>
  </linearGradient>
  <linearGradient id="id33" gradientUnits="userSpaceOnUse" x1="-4438" y1="4474" x2="-4337" y2="4474">
   <stop offset="0" style="stop-opacity:1; stop-color:#66CCF0"/>
   <stop offset="1" style="stop-opacity:1; stop-color:#51C4F1"/>
  </linearGradient>
  <linearGradient id="id34" gradientUnits="userSpaceOnUse" xlink:href="#id33" x1="-4330" y1="4493" x2="-4251" y2="4493">
  </linearGradient>
  <linearGradient id="id35" gradientUnits="userSpaceOnUse" x1="-4505" y1="5543" x2="-4505" y2="5236">
   <stop offset="0" style="stop-opacity:1; stop-color:#5A4E67"/>
   <stop offset="1" style="stop-opacity:1; stop-color:#766485"/>
  </linearGradient>
  <linearGradient id="id36" gradientUnits="userSpaceOnUse" x1="-4287" y1="5358" x2="-4287" y2="5467">
   <stop offset="0" style="stop-opacity:1; stop-color:#DED3E5"/>
   <stop offset="1" style="stop-opacity:1; stop-color:#C9BBD7"/>
  </linearGradient>
  <linearGradient id="id37" gradientUnits="userSpaceOnUse" x1="-4438" y1="4474" x2="-4337" y2="4474">
   <stop offset="0" style="stop-opacity:1; stop-color:#92D8F2"/>
   <stop offset="1" style="stop-opacity:1; stop-color:#83CFF3"/>
  </linearGradient>
  <linearGradient id="id38" gradientUnits="userSpaceOnUse" x1="-4267" y1="4894" x2="-4267" y2="4861">
   <stop offset="0" style="stop-opacity:1; stop-color:#FCDF7E"/>
   <stop offset="1" style="stop-opacity:1; stop-color:#FCDF7E"/>
  </linearGradient>
  <linearGradient id="id39" gradientUnits="userSpaceOnUse" xlink:href="#id38" x1="-4267" y1="5014" x2="-4267" y2="4905">
  </linearGradient>
  <linearGradient id="id40" gradientUnits="userSpaceOnUse" x1="-4267" y1="5014" x2="-4267" y2="4905">
   <stop offset="0" style="stop-opacity:1; stop-color:#FCD64E"/>
   <stop offset="1" style="stop-opacity:1; stop-color:#FCD64E"/>
  </linearGradient>
  <linearGradient id="id41" gradientUnits="userSpaceOnUse" x1="-4340" y1="4331" x2="-4340" y2="4622">
   <stop offset="0" style="stop-opacity:1; stop-color:#3A80C1"/>
   <stop offset="1" style="stop-opacity:1; stop-color:#2F507D"/>
  </linearGradient>
  <linearGradient id="id42" gradientUnits="userSpaceOnUse" x1="-4502" y1="5086" x2="-4502" y2="4780">
   <stop offset="0" style="stop-opacity:1; stop-color:#874E33"/>
   <stop offset="1" style="stop-opacity:1; stop-color:#CF6C41"/>
  </linearGradient>
  <linearGradient id="id43" gradientUnits="userSpaceOnUse" x1="-4355" y1="5071" x2="-4355" y2="4780">
   <stop offset="0" style="stop-opacity:1; stop-color:#B2943E"/>
   <stop offset="1" style="stop-opacity:1; stop-color:#FCD64E"/>
  </linearGradient>
  <linearGradient id="id44" gradientUnits="userSpaceOnUse" x1="-4344" y1="5252" x2="-4344" y2="5543">
   <stop offset="0" style="stop-opacity:1; stop-color:#A388B8"/>
   <stop offset="1" style="stop-opacity:1; stop-color:#5A4E67"/>
  </linearGradient>
  <linearGradient id="id45" gradientUnits="userSpaceOnUse" xlink:href="#id36" x1="-4379" y1="5317" x2="-4379" y2="5467">
  </linearGradient>
  <linearGradient id="id46" gradientUnits="userSpaceOnUse" xlink:href="#id38" x1="-4363" y1="5014" x2="-4363" y2="4864">
  </linearGradient>
  <linearGradient id="id47" gradientUnits="userSpaceOnUse" xlink:href="#id37" x1="-4438" y1="4474" x2="-4337" y2="4474">
  </linearGradient>
  <linearGradient id="id48" gradientUnits="userSpaceOnUse" xlink:href="#id38" x1="-4363" y1="4952" x2="-4363" y2="4943">
  </linearGradient>
  <linearGradient id="id49" gradientUnits="userSpaceOnUse" xlink:href="#id40" x1="-4363" y1="5014" x2="-4363" y2="4864">
  </linearGradient>
  <linearGradient id="id50" gradientUnits="userSpaceOnUse" x1="-4512" y1="5382" x2="-4204" y2="5382">
   <stop offset="0" style="stop-opacity:1; stop-color:#D5C5DC"/>
   <stop offset="1" style="stop-opacity:1; stop-color:#B9A8CD"/>
  </linearGradient>
  <linearGradient id="id51" gradientUnits="userSpaceOnUse" x1="-4337" y1="4196" x2="-4337" y2="4208">
   <stop offset="0" style="stop-opacity:1; stop-color:#8CCF3A"/>
   <stop offset="1" style="stop-opacity:1; stop-color:#00A859"/>
  </linearGradient>
  <linearGradient id="id52" gradientUnits="userSpaceOnUse" xlink:href="#id37" x1="-4330" y1="4493" x2="-4251" y2="4493">
  </linearGradient>
  <linearGradient id="id53" gradientUnits="userSpaceOnUse" xlink:href="#id40" x1="-4267" y1="4894" x2="-4267" y2="4861">
  </linearGradient>
  <linearGradient id="id54" gradientUnits="userSpaceOnUse" x1="-4340" y1="5086" x2="-4340" y2="4795">
   <stop offset="0" style="stop-opacity:1; stop-color:#A95937"/>
   <stop offset="1" style="stop-opacity:1; stop-color:#E7883B"/>
  </linearGradient>
  <linearGradient id="id55" gradientUnits="userSpaceOnUse" x1="-4356" y1="3903" x2="-4358" y2="4181">
   <stop offset="0" style="stop-opacity:1; stop-color:#A8CF45"/>
   <stop offset="1" style="stop-opacity:1; stop-color:#FEFEFE"/>
  </linearGradient>
  <linearGradient id="id56" gradientUnits="userSpaceOnUse" xlink:href="#id55" x1="-4386" y1="3913" x2="-4392" y2="4147">
  </linearGradient>
  <linearGradient id="id57" gradientUnits="userSpaceOnUse" xlink:href="#id55" x1="-4291" y1="3913" x2="-4295" y2="4149">
  </linearGradient>
  <linearGradient id="id58" gradientUnits="userSpaceOnUse" x1="-4333" y1="3902" x2="-4339" y2="4193">
   <stop offset="0" style="stop-opacity:1; stop-color:#00A859"/>
   <stop offset="0.701961" style="stop-opacity:1; stop-color:#34AA2C"/>
   <stop offset="1" style="stop-opacity:1; stop-color:#A8CF45"/>
  </linearGradient>
  <linearGradient id="id59" gradientUnits="userSpaceOnUse" xlink:href="#id55" x1="-4434" y1="3949" x2="-4428" y2="4099">
  </linearGradient>
  <linearGradient id="id60" gradientUnits="userSpaceOnUse" xlink:href="#id55" x1="-4251" y1="3944" x2="-4256" y2="4106">
  </linearGradient>
  <linearGradient id="id61" gradientUnits="userSpaceOnUse" x1="-4343" y1="5251" x2="-4343" y2="5543">
   <stop offset="0" style="stop-opacity:1; stop-color:#665673"/>
   <stop offset="1" style="stop-opacity:1; stop-color:#3E3647"/>
  </linearGradient>
  <linearGradient id="id62" gradientUnits="userSpaceOnUse" xlink:href="#id61" x1="-4343" y1="5252" x2="-4343" y2="5543">
  </linearGradient>
  <linearGradient id="id63" gradientUnits="userSpaceOnUse" xlink:href="#id55" x1="-4331" y1="3902" x2="-4332" y2="4184">
  </linearGradient>
 </defs>
 <g id="Layer_x0020_1">
  <metadata id="CorelCorpID_0Corel-Layer"/>
  <g id="_1899838862224">
   <path class="fil0" d="M-4251 3944c-54,-56 -118,-58 -179,0 -59,72 -10,167 86,249l14 0c82,-83 145,-172 80,-249z"/>
   <path class="fil1" style="mask:url(#id0)" d="M-4283 3917c39,77 32,152 -3,227l-12 14c27,-87 29,-170 -1,-249l16 8z"/>
   <path class="fil2" style="mask:url(#id2)" d="M-4331 3902c39,88 44,197 9,282l-9 9c27,-99 19,-201 -11,-291l11 0z"/>
   <path class="fil3" style="mask:url(#id4)" d="M-4356 3903c-39,88 -37,192 -2,278l15 12c-27,-99 -33,-200 -2,-291l-10 1z"/>
   <path class="fil4" style="mask:url(#id6)" d="M-4392 3916c-39,69 -35,163 0,231l9 10c-27,-78 -28,-175 2,-246l-12 6z"/>
   <path class="fil5" style="mask:url(#id8)" d="M-4434 3949c-39,69 -24,90 11,157l10 15c-27,-78 -36,-116 -6,-187l-16 15z"/>
   <path class="fil6" style="mask:url(#id10)" d="M-4245 3948c39,69 24,90 -11,157l-10 15c27,-78 36,-116 6,-187l16 15z"/>
   <rect class="fil7" x="-4344" y="4196" width="14" height="12" rx="1" ry="1"/>
  </g>
  <g id="_1899838860144">
   <path class="fil8" d="M987 218c3,15 276,624 284,642 46,108 96,212 143,321 23,54 48,108 72,161 11,24 68,145 69,159l-211 0c-9,-15 -22,-52 -29,-71l-58 -145c-8,-21 -19,-52 -29,-70l-242 0 1 753c10,-2 250,-138 296,-163l464 -257c3,-2 11,-6 13,-7 4,-4 2,0 4,-6l124 -1067c2,-25 5,-49 8,-73 3,-20 7,-52 7,-74 -10,-1 -213,-74 -230,-81l-343 -123c-104,-36 -216,-79 -318,-113l-28 -5c7,10 -6,187 4,217z"/>
   <path class="fil9" d="M985 1969l-1 -753 242 0c-16,-6 -430,-2 -487,-2l-116 288 -212 0c2,-11 61,-139 70,-160 25,-55 48,-107 72,-161 48,-109 97,-213 143,-320 47,-107 95,-216 144,-322l134 -301c6,-14 4,-13 12,-18 -10,-30 4,-208 -4,-217 -10,-3 -39,11 -57,17l-228 81c-75,26 -156,57 -230,82 -20,7 -38,14 -58,21 -91,30 -195,72 -286,102l-59 19c0,21 4,52 7,71l17 143c13,95 20,192 33,288 2,13 2,24 4,37l29 250c13,93 21,193 33,288 3,25 6,48 8,73 1,14 4,60 11,68 2,2 45,26 52,29l619 343c18,10 35,18 52,29 9,5 18,10 26,15 6,4 20,12 27,13z"/>
   <path class="fil10" d="M1227 1215c10,18 21,49 29,70l58 145c8,19 20,56 29,71l211 0c-2,-14 -59,-136 -69,-159 -24,-53 -49,-107 -72,-161 -46,-109 -96,-213 -143,-321 -8,-18 -282,-627 -284,-642 -8,5 -6,4 -12,18l-134 301c-48,107 -97,215 -144,322 -47,107 -95,211 -143,320 -24,54 -47,107 -72,161 -10,21 -68,149 -70,160l212 0 116 -288c56,0 470,-4 487,2z"/>
   <path class="fil8" d="M983 640l2 396 166 0c-6,-24 -131,-313 -157,-379 -2,-4 -4,-16 -8,-19 -4,-3 -1,-4 -3,1z"/>
   <path class="fil9" d="M985 1036l-2 -396 -22 48c-20,48 -139,330 -144,348l167 0z"/>
  </g>
  <g id="_1899838859600">
   <polygon class="fil11" points="-4512,2786 -4218,2786 -4218,2491 -4512,2491 "/>
   <path class="fil10" d="M-4314 2721c-1,1 -21,12 -22,13 1,3 6,10 9,12 3,3 7,6 12,9 14,8 36,9 52,2 3,-1 4,-2 7,-4 4,-2 4,-3 6,-5 2,-1 4,-4 5,-6 5,-8 6,-17 4,-27 -4,-24 -25,-31 -45,-40 -5,-2 -10,-5 -13,-8 -3,-5 -2,-12 2,-16 4,-3 11,-4 17,-2 7,3 7,7 11,10 2,-1 4,-2 5,-3 2,-1 3,-2 5,-3 2,-1 9,-6 10,-7 -1,-4 -8,-11 -12,-14 -3,-2 -7,-4 -10,-5 -10,-3 -26,-3 -36,2 -9,5 -16,11 -19,22 -2,6 -1,13 -1,19 1,5 4,11 6,14 6,8 13,12 24,17 7,3 22,9 26,15 3,4 2,12 -2,15 -8,7 -23,6 -32,-1 -3,-2 -6,-5 -8,-8l-2 -3z"/>
   <path class="fil10" d="M-4448 2651c6,0 13,0 19,0 4,0 17,0 19,0l0 109 27 0 0 -109 38 0 0 -24c-3,-1 -102,0 -103,0 0,0 0,0 0,1 0,0 0,0 0,1l0 4c0,5 0,14 0,18z"/>
   <path class="fil12" d="M-4409 2760l0 -109c-2,-1 -16,0 -19,0 -6,0 -13,0 -19,0 0,0 0,0 1,0l37 0 0 107c0,0 0,1 0,1l0 1z"/>
  </g>
  <polygon class="fil13" points="-4509,4607 -4201,4607 -4201,4316 -4509,4316 "/>
  <path class="fil14 str0" d="M-4185 4622l-285 0 0 -291 285 0 0 291zm-285 -291l-24 0 24 0zm-24 0l0 291 0 -291z"/>
  <polygon class="fil15" points="-4509,4607 -4494,4622 -4494,4331 -4509,4316 "/>
  <g style="clip-path:url(#id12)">
   <image x="-4497" y="4328" width="29" height="295" xlink:href="Angular_Images\Angular_ImgID1.png"/>
  </g>
  <g style="clip-path:url(#id13)">
   <image x="-4439" y="4402" width="105" height="151" xlink:href="Angular_Images\Angular_ImgID2.png"/>
  </g>
  <g style="clip-path:url(#id14)">
   <image x="-4331" y="4442" width="83" height="111" xlink:href="Angular_Images\Angular_ImgID3.png"/>
  </g>
  <path class="fil16" d="M-4409 4548l-27 0 0 -144 0 0c11,-2 25,-3 41,-3 19,0 33,4 43,12l0 0c9,8 14,19 14,32 0,14 -4,25 -12,33 -11,10 -27,16 -46,16 -3,0 -7,0 -11,-1l-2 0 0 55zm2 -78l0 0c3,1 6,1 11,1 19,0 30,-9 30,-25 0,-15 -10,-23 -28,-23 -7,0 -11,1 -13,1l0 45zm41 -24l0 0z"/>
  <path class="fil17" d="M-4296 4548c-12,0 -24,-3 -32,-7l0 0 6 -20 0 0c6,4 17,8 27,8 10,0 16,-4 16,-11 0,-7 -4,-10 -17,-15 -24,-8 -29,-21 -29,-31 0,-20 16,-33 40,-33 11,0 21,2 28,6l0 0 -6 19 0 0c-5,-3 -13,-6 -22,-6 -9,0 -14,4 -14,11 0,6 5,9 18,14 19,7 28,17 28,32 0,21 -16,33 -43,33z"/>
  <path class="fil18" d="M-4408 4549l-30 0 0 -147 2 0c11,-2 25,-3 41,-3 19,0 34,4 44,12 10,8 15,20 15,34 0,14 -4,26 -13,34 -11,11 -27,16 -47,16 -3,0 -7,0 -11,-1l0 55zm12 -149c-16,0 -29,1 -41,3l0 0 0 144 27 0 0 -55 2 0c4,1 7,1 11,1 20,0 36,-5 46,-16 8,-8 12,-19 12,-33 0,-13 -5,-25 -14,-32l0 0c-9,-8 -24,-12 -43,-12z"/>
  <g style="clip-path:url(#id15)">
   <image x="-4407" y="4425" width="41" height="47" xlink:href="Angular_Images\Angular_ImgID4.png"/>
  </g>
  <g style="clip-path:url(#id16)">
   <image x="-4409" y="4423" width="43" height="48" xlink:href="Angular_Images\Angular_ImgID5.png"/>
  </g>
  <path class="fil19" d="M-4397 4471c-5,0 -8,0 -11,-1l0 0c1,0 1,0 2,0 3,0 5,0 9,0 17,0 28,-8 30,-21 0,-1 0,-3 0,-4l0 0c0,15 -11,25 -30,25z"/>
  <path class="fil20" d="M-4296 4549c-12,0 -24,-3 -33,-8l-1 -1 7 -24 2 1c6,4 17,7 26,7 6,0 15,-1 15,-10 0,-5 -2,-8 -16,-13 -25,-8 -30,-22 -30,-33 0,-20 17,-35 42,-35 11,0 22,2 29,6l1 1 -7 23 -2 -1c-4,-3 -13,-6 -21,-6 -8,0 -13,4 -13,9 0,5 4,8 17,13 20,7 29,17 29,34 0,22 -17,35 -45,35zm15 -33l0 0zm-17 -49l0 0zm-25 52l-6 20 0 0c8,5 20,7 32,7 27,0 43,-13 43,-33 0,-16 -9,-26 -28,-32 -13,-5 -18,-8 -18,-14 0,-7 6,-11 14,-11 9,0 17,3 22,6l0 0 6 -19 0 0c-7,-4 -18,-6 -28,-6 -24,0 -40,14 -40,33 0,10 5,23 29,31 13,5 17,8 17,15 0,7 -6,11 -16,11 -9,0 -21,-4 -27,-8l0 0z"/>
  <polygon class="fil21" points="-4494,5071 -4494,5071 -4494,4795 -4509,4780 -4509,5071 -4509,4780 -4201,4780 -4201,4795 -4494,4795 "/>
  <path class="fil22" d="M-4185 5086l-285 0 0 -291 285 0 0 291zm-285 -291l-24 0 24 0zm-24 0l0 291 0 -291z"/>
  <polygon class="fil23" points="-4494,5086 -4509,5071 -4509,4780 -4494,4795 "/>
  <g style="clip-path:url(#id17)">
   <image x="-4496" y="4793" width="29" height="295" xlink:href="Angular_Images\Angular_ImgID6.png"/>
  </g>
  <g style="clip-path:url(#id18)">
   <image x="-4431" y="4864" width="138" height="153" xlink:href="Angular_Images\Angular_ImgID7.png"/>
  </g>
  <g style="clip-path:url(#id19)">
   <image x="-4285" y="4863" width="38" height="35" xlink:href="Angular_Images\Angular_ImgID8.png"/>
  </g>
  <g style="clip-path:url(#id20)">
   <image x="-4284" y="4904" width="34" height="114" xlink:href="Angular_Images\Angular_ImgID9.png"/>
  </g>
  <path class="fil24" d="M-4298 5012l-29 0 -13 -40 0 -1 -45 0 0 1 -12 40 -28 0 47 -146 34 0 47 146zm-81 -64l32 0 -11 -33c-2,-7 -4,-14 -6,-20 0,1 0,2 -1,3 -1,6 -3,12 -5,18l-10 33z"/>
  <path class="fil25" d="M-4268 4892c-9,0 -15,-6 -15,-15 0,-9 6,-15 15,-15 9,0 15,6 15,15 0,8 -7,15 -15,15z"/>
  <polygon class="fil26" points="-4281,5012 -4254,5012 -4254,4906 -4281,4906 "/>
  <path class="fil27" d="M-4296 5014l-33 0 -13 -41 -43 0 -13 41 -32 0 48 -149 37 0 49 149zm-90 -43l45 0 0 1 13 40 29 0 -47 -146 -34 0 -47 146 28 0 12 -40 0 -1z"/>
  <g style="clip-path:url(#id21)">
   <image x="-4378" y="4900" width="30" height="50" xlink:href="Angular_Images\Angular_ImgID10.png"/>
  </g>
  <g style="clip-path:url(#id22)">
   <image x="-4380" y="4894" width="33" height="55" xlink:href="Angular_Images\Angular_ImgID11.png"/>
  </g>
  <path class="fil28" d="M-4348 4948l-1 0 1 0zm-1 0l-29 0 29 0zm-29 0l-3 0 3 0z"/>
  <path class="fil29" d="M-4268 4894c-10,0 -17,-7 -17,-16 0,-10 7,-16 17,-16 10,0 17,7 17,16 0,9 -7,16 -17,16zm0 -31c-9,0 -15,6 -15,15 0,8 6,15 15,15 9,0 15,-6 15,-15 0,-9 -7,-15 -15,-15z"/>
  <path class="fil30" d="M-4252 5014l-31 0 0 -109 31 0 0 109zm-29 -107l0 106 27 0 0 -106 -27 0z"/>
  <path class="fil31" d="M-4512 5528l0 -291 0 291zm0 -291l309 0 0 15 -293 0 0 0 -15 -15z"/>
  <path class="fil32" d="M-4497 5543l0 0 0 0 0 0zm0 0l-15 -15 0 -291 15 15 0 0 0 0 0 291z"/>
  <path class="fil33" d="M-4183 5543l-298 0 0 -291 298 0 0 291zm-298 -291l-25 0 25 0zm-25 0l0 291 0 -291z"/>
  <g style="clip-path:url(#id23)">
   <image x="-4500" y="5249" width="29" height="296" xlink:href="Angular_Images\Angular_ImgID12.png"/>
  </g>
  <path class="fil34" d="M-4327 5371l0 -16c0,3 1,5 1,8 0,3 0,6 -1,9zm-45 -55l-37 0c7,-1 15,-1 23,-1 5,0 10,0 14,1z"/>
  <path class="fil35" d="M-4254 5385l0 0 0 -27 -14 0c2,-1 4,-1 7,-1 3,0 4,0 7,1l1 0 0 27z"/>
  <g style="clip-path:url(#id24)">
   <image x="-4431" y="5315" width="105" height="153" xlink:href="Angular_Images\Angular_ImgID13.png"/>
  </g>
  <g style="clip-path:url(#id25)">
   <image x="-4430" y="5317" width="100" height="150" xlink:href="Angular_Images\Angular_ImgID14.png"/>
  </g>
  <path class="fil36" d="M-4400 5467l-30 0 0 -147 2 0c11,-2 25,-3 41,-3 19,0 34,4 44,12 9,8 15,20 15,34 0,14 -4,26 -13,34 -11,11 -27,16 -47,16 -3,0 -7,0 -11,-1l0 55zm12 -149c-16,0 -29,1 -41,3l0 0 0 144 27 0 0 -55 2 0c4,1 7,1 11,1 20,0 36,-5 46,-16 8,-8 12,-19 12,-33 0,-13 -5,-25 -14,-32 -9,-8 -24,-12 -43,-12z"/>
  <g style="clip-path:url(#id26)">
   <image x="-4399" y="5341" width="41" height="47" xlink:href="Angular_Images\Angular_ImgID15.png"/>
  </g>
  <g style="clip-path:url(#id27)">
   <image x="-4401" y="5340" width="43" height="50" xlink:href="Angular_Images\Angular_ImgID16.png"/>
  </g>
  <g style="clip-path:url(#id28)">
   <image x="-4319" y="5356" width="66" height="112" xlink:href="Angular_Images\Angular_ImgID17.png"/>
  </g>
  <g style="clip-path:url(#id29)">
   <image x="-4318" y="5359" width="62" height="108" xlink:href="Angular_Images\Angular_ImgID18.png"/>
  </g>
  <path class="fil37" d="M-4288 5467l-29 0 0 -72c0,-14 0,-25 -1,-34l25 0 1 20 1 0c5,-15 18,-23 29,-23 3,0 4,0 6,1l0 25c-2,0 -5,-1 -8,-1 -13,0 -22,8 -24,20 0,2 -1,5 -1,8l0 55zm-28 -105c1,8 1,18 1,33l0 71 26 0 0 -54c0,-3 0,-6 1,-8 3,-13 12,-22 26,-22 2,0 4,0 6,0l0 -22c-1,0 -3,0 -5,0 -9,0 -22,6 -28,21l0 1 -1 0 -1 0 -2 0 0 -2 -1 -19 -22 0z"/>
  <g style="clip-path:url(#id30)">
   <image x="-4550" y="2988" width="379" height="311" xlink:href="Angular_Images\Angular_ImgID19.png"/>
  </g>
  <circle class="fil38 str1" cx="-4342" cy="3591" r="177"/>
  <g style="clip-path:url(#id31)">
   <image x="-4478" y="3500" width="273" height="182" xlink:href="Angular_Images\Angular_ImgID20.png"/>
  </g>
 </g>
</svg>
