<?xml version="1.0" encoding="UTF-8"?>
<!DOCTYPE svg PUBLIC "-//W3C//DTD SVG 1.1//EN" "http://www.w3.org/Graphics/SVG/1.1/DTD/svg11.dtd">
<!-- Creator: CorelDRAW 2017 -->
<svg xmlns="http://www.w3.org/2000/svg" xml:space="preserve" width="1.9685in" height="1.9685in" version="1.1" style="shape-rendering:geometricPrecision; text-rendering:geometricPrecision; image-rendering:optimizeQuality; fill-rule:evenodd; clip-rule:evenodd"
viewBox="0 0 1969 1969"
 xmlns:xlink="http://www.w3.org/1999/xlink">
 <defs>
  <style type="text/css">
   <![CDATA[
    .str0 {stroke:#FEFEFE;stroke-width:7.87402}
    .fil15 {fill:#FEFEFE}
    .fil9 {fill:url(#id19)}
    .fil14 {fill:url(#id20)}
    .fil7 {fill:url(#id21)}
    .fil10 {fill:url(#id22)}
    .fil13 {fill:url(#id23)}
    .fil8 {fill:url(#id24)}
    .fil3 {fill:url(#id25)}
    .fil0 {fill:url(#id26)}
    .fil12 {fill:url(#id27)}
    .fil2 {fill:url(#id28)}
    .fil6 {fill:url(#id29)}
    .fil11 {fill:url(#id30)}
    .fil5 {fill:url(#id31)}
    .fil4 {fill:url(#id32)}
    .fil1 {fill:url(#id33)}
   ]]>
  </style>
    <mask id="id0">
  <linearGradient id="id1" gradientUnits="userSpaceOnUse" x1="1394" y1="-42" x2="1330" y2="1563">
   <stop offset="0" style="stop-opacity:1; stop-color:white"/>
   <stop offset="1" style="stop-opacity:0; stop-color:white"/>
  </linearGradient>
     <rect style="fill:url(#id1)" x="1242" y="48" width="277" height="1609"/>
    </mask>
    <mask id="id2">
  <linearGradient id="id3" gradientUnits="userSpaceOnUse" x1="1099" y1="-54" x2="1128" y2="1877">
   <stop offset="0" style="stop-opacity:1; stop-color:white"/>
   <stop offset="1" style="stop-opacity:0; stop-color:white"/>
  </linearGradient>
     <rect style="fill:url(#id3)" x="968" y="-3" width="286" height="1879"/>
    </mask>
    <mask id="id4">
  <linearGradient id="id5" gradientUnits="userSpaceOnUse" x1="793" y1="32" x2="804" y2="1847">
   <stop offset="0" style="stop-opacity:1; stop-color:white"/>
   <stop offset="1" style="stop-opacity:0; stop-color:white"/>
  </linearGradient>
     <rect style="fill:url(#id5)" x="693" y="-2" width="271" height="1876"/>
    </mask>
    <mask id="id6">
  <linearGradient id="id7" gradientUnits="userSpaceOnUse" x1="662" y1="-196" x2="650" y2="1575">
   <stop offset="0" style="stop-opacity:1; stop-color:white"/>
   <stop offset="1" style="stop-opacity:0; stop-color:white"/>
  </linearGradient>
     <rect style="fill:url(#id7)" x="468" y="53" width="261" height="1590"/>
    </mask>
    <mask id="id8">
  <linearGradient id="id9" gradientUnits="userSpaceOnUse" x1="467" y1="-131" x2="272" y2="1481">
   <stop offset="0" style="stop-opacity:1; stop-color:white"/>
   <stop offset="1" style="stop-opacity:0; stop-color:white"/>
  </linearGradient>
     <rect style="fill:url(#id9)" x="227" y="205" width="291" height="1209"/>
    </mask>
    <mask id="id10">
  <linearGradient id="id11" gradientUnits="userSpaceOnUse" x1="1618" y1="23" x2="1618" y2="1280">
   <stop offset="0" style="stop-opacity:1; stop-color:white"/>
   <stop offset="1" style="stop-opacity:0; stop-color:white"/>
  </linearGradient>
     <rect style="fill:url(#id11)" x="1450" y="201" width="291" height="1209"/>
    </mask>
   <clipPath id="id12">
    <path d="M-4473 5543l-24 0 0 0 0 0 0 -291 24 0 0 291 0 0z"/>
   </clipPath>
   <clipPath id="id13">
    <path d="M-4398 5467l-32 0 0 -149 3 0c6,-1 12,-2 18,-2l37 0c13,2 23,6 30,12 8,7 13,16 15,27l0 16c-1,11 -6,20 -13,26 -11,11 -28,17 -48,17 -3,0 -7,0 -10,0l0 54zm-32 0l0 0 30 0 0 -55c4,1 7,1 11,1 20,0 36,-6 47,-16 8,-8 13,-20 13,-34l0 0 0 0c0,-14 -5,-26 -15,-34 -10,-8 -25,-12 -44,-12 -16,0 -29,1 -41,3l-2 0 0 147 0 0z"/>
   </clipPath>
   <clipPath id="id14">
    <path d="M-4401 5466l-27 0 0 -144 0 0c11,-2 25,-3 41,-3 19,0 33,4 43,12 9,8 14,19 14,32 0,14 -4,25 -12,33 -11,10 -27,16 -46,16 -3,0 -7,0 -11,-1l-2 0 0 2 0 53zm2 -78l0 0c3,1 6,1 11,1 19,0 30,-9 30,-25l0 0 0 0c0,-15 -10,-23 -27,-23 -7,0 -11,1 -13,1l0 45 0 0 0 0z"/>
   </clipPath>
   <clipPath id="id15">
    <path d="M-4388 5387c-4,0 -7,0 -10,-1l0 -44c3,0 6,-1 12,-1 5,0 9,1 13,2 6,2 10,6 12,12 1,2 1,5 1,8 0,15 -11,24 -29,24l0 0z"/>
   </clipPath>
   <clipPath id="id16">
    <path d="M-4389 5389c-4,0 -8,0 -11,-1l0 -45c2,0 7,-1 13,-1 5,0 10,1 14,2 -4,-1 -8,-2 -13,-2 -6,0 -10,0 -12,1l0 44c3,1 6,1 10,1 18,0 29,-9 29,-24 0,-3 0,-6 -1,-8 1,3 1,6 1,9 0,15 -11,25 -30,25l0 0z"/>
   </clipPath>
   <clipPath id="id17">
    <path d="M-4287 5467l-31 0 0 -73c0,-15 0,-25 -1,-34l0 -1 27 0 1 18c5,-11 14,-17 23,-19l14 0 0 27 -1 0c-2,0 -5,-1 -8,-1 -12,0 -21,7 -23,20 0,2 -1,5 -1,8l0 56zm-31 0l0 0 29 0 0 -55c0,-3 0,-6 1,-8 2,-12 11,-20 24,-20 3,0 6,0 8,1l0 -25 0 0c-2,0 -4,-1 -6,-1 -12,0 -24,8 -29,23l-1 0 -1 -20 -25 0 0 0c1,9 1,20 1,34l0 72 0 0z"/>
   </clipPath>
   <clipPath id="id18">
    <path d="M-4290 5466l-26 0 0 -71c0,-15 0,-24 -1,-33l22 0 1 19 0 2 2 0 1 0 1 0 0 -1c6,-16 18,-21 28,-21 2,0 3,0 5,0l0 22c-2,0 -4,0 -6,0 -13,0 -23,8 -26,22 0,2 -1,5 -1,8l0 54 0 0z"/>
   </clipPath>
  <linearGradient id="id19" gradientUnits="userSpaceOnUse" x1="-4505" y1="5543" x2="-4505" y2="5236">
   <stop offset="0" style="stop-opacity:1; stop-color:#5A4E67"/>
   <stop offset="1" style="stop-opacity:1; stop-color:#766485"/>
  </linearGradient>
  <linearGradient id="id20" gradientUnits="userSpaceOnUse" x1="-4287" y1="5358" x2="-4287" y2="5467">
   <stop offset="0" style="stop-opacity:1; stop-color:#DED3E5"/>
   <stop offset="1" style="stop-opacity:1; stop-color:#C9BBD7"/>
  </linearGradient>
  <linearGradient id="id21" gradientUnits="userSpaceOnUse" x1="1000" y1="1890" x2="1000" y2="1969">
   <stop offset="0" style="stop-opacity:1; stop-color:#8CCF3A"/>
   <stop offset="1" style="stop-opacity:1; stop-color:#00A859"/>
  </linearGradient>
  <linearGradient id="id22" gradientUnits="userSpaceOnUse" x1="-4344" y1="5252" x2="-4344" y2="5543">
   <stop offset="0" style="stop-opacity:1; stop-color:#A388B8"/>
   <stop offset="1" style="stop-opacity:1; stop-color:#5A4E67"/>
  </linearGradient>
  <linearGradient id="id23" gradientUnits="userSpaceOnUse" xlink:href="#id20" x1="-4379" y1="5317" x2="-4379" y2="5467">
  </linearGradient>
  <linearGradient id="id24" gradientUnits="userSpaceOnUse" x1="-4512" y1="5382" x2="-4204" y2="5382">
   <stop offset="0" style="stop-opacity:1; stop-color:#D5C5DC"/>
   <stop offset="1" style="stop-opacity:1; stop-color:#B9A8CD"/>
  </linearGradient>
  <linearGradient id="id25" gradientUnits="userSpaceOnUse" x1="880" y1="10" x2="868" y2="1794">
   <stop offset="0" style="stop-opacity:1; stop-color:#A8CF45"/>
   <stop offset="1" style="stop-opacity:1; stop-color:#FEFEFE"/>
  </linearGradient>
  <linearGradient id="id26" gradientUnits="userSpaceOnUse" x1="1026" y1="2" x2="990" y2="1871">
   <stop offset="0" style="stop-opacity:1; stop-color:#00A859"/>
   <stop offset="0.701961" style="stop-opacity:1; stop-color:#34AA2C"/>
   <stop offset="1" style="stop-opacity:1; stop-color:#A8CF45"/>
  </linearGradient>
  <linearGradient id="id27" gradientUnits="userSpaceOnUse" x1="-4343" y1="5251" x2="-4343" y2="5543">
   <stop offset="0" style="stop-opacity:1; stop-color:#665673"/>
   <stop offset="1" style="stop-opacity:1; stop-color:#3E3647"/>
  </linearGradient>
  <linearGradient id="id28" gradientUnits="userSpaceOnUse" xlink:href="#id25" x1="1042" y1="2" x2="1035" y2="1814">
  </linearGradient>
  <linearGradient id="id29" gradientUnits="userSpaceOnUse" xlink:href="#id25" x1="1556" y1="272" x2="1520" y2="1312">
  </linearGradient>
  <linearGradient id="id30" gradientUnits="userSpaceOnUse" xlink:href="#id27" x1="-4343" y1="5252" x2="-4343" y2="5543">
  </linearGradient>
  <linearGradient id="id31" gradientUnits="userSpaceOnUse" xlink:href="#id25" x1="378" y1="307" x2="417" y2="1267">
  </linearGradient>
  <linearGradient id="id32" gradientUnits="userSpaceOnUse" xlink:href="#id25" x1="686" y1="75" x2="650" y2="1575">
  </linearGradient>
  <linearGradient id="id33" gradientUnits="userSpaceOnUse" xlink:href="#id25" x1="1296" y1="77" x2="1271" y2="1591">
  </linearGradient>
 </defs>
 <g id="Layer_x0020_1">
  <metadata id="CorelCorpID_0Corel-Layer"/>
  <g id="_1899836824240">
   <path class="fil0" d="M1556 272c-344,-357 -756,-370 -1151,0 -380,464 -63,1074 550,1598l90 2c529,-533 933,-1106 511,-1600z"/>
   <path class="fil1" style="mask:url(#id0)" d="M1347 103c248,493 208,979 -17,1461l-77 90c172,-556 189,-1092 -7,-1602l101 51z"/>
   <path class="fil2" style="mask:url(#id2)" d="M1042 2c248,564 283,1263 59,1814l-56 57c172,-635 122,-1289 -73,-1872l70 1z"/>
   <path class="fil3" style="mask:url(#id4)" d="M880 10c-248,564 -237,1233 -12,1784l93 77c-172,-635 -211,-1287 -15,-1869l-66 8z"/>
   <path class="fil4" style="mask:url(#id6)" d="M648 94c-248,442 -223,1049 2,1481l60 65c-172,-498 -180,-1126 15,-1583l-77 37z"/>
   <path class="fil5" style="mask:url(#id8)" d="M378 307c-248,442 -153,578 71,1010l66 94c-172,-498 -233,-746 -38,-1203l-100 99z"/>
   <path class="fil6" style="mask:url(#id10)" d="M1591 303c248,442 153,578 -71,1010l-66 94c172,-498 233,-746 38,-1203l100 99z"/>
   <rect class="fil7" x="954" y="1890" width="91" height="78" rx="3" ry="6"/>
  </g>
  <path class="fil8" d="M-4512 5528l0 -291 0 291zm0 -291l309 0 0 15 -293 0 0 0 -15 -15z"/>
  <path class="fil9" d="M-4497 5543l0 0 0 0 0 0zm0 0l-15 -15 0 -291 15 15 0 0 0 0 0 291z"/>
  <path class="fil10" d="M-4183 5543l-298 0 0 -291 298 0 0 291zm-298 -291l-25 0 25 0zm-25 0l0 291 0 -291z"/>
  <g style="clip-path:url(#id12)">
   <image x="-4500" y="5249" width="29" height="296" xlink:href="COREL_Images\COREL_ImgID1.png"/>
  </g>
  <path class="fil11" d="M-4327 5371l0 -16c0,3 1,5 1,8 0,3 0,6 -1,9zm-45 -55l-37 0c7,-1 15,-1 23,-1 5,0 10,0 14,1z"/>
  <path class="fil12" d="M-4254 5385l0 0 0 -27 -14 0c2,-1 4,-1 7,-1 3,0 4,0 7,1l1 0 0 27z"/>
  <g style="clip-path:url(#id13)">
   <image x="-4431" y="5315" width="105" height="153" xlink:href="COREL_Images\COREL_ImgID2.png"/>
  </g>
  <g style="clip-path:url(#id14)">
   <image x="-4430" y="5317" width="100" height="150" xlink:href="COREL_Images\COREL_ImgID3.png"/>
  </g>
  <path class="fil13" d="M-4400 5467l-30 0 0 -147 2 0c11,-2 25,-3 41,-3 19,0 34,4 44,12 9,8 15,20 15,34 0,14 -4,26 -13,34 -11,11 -27,16 -47,16 -3,0 -7,0 -11,-1l0 55zm12 -149c-16,0 -29,1 -41,3l0 0 0 144 27 0 0 -55 2 0c4,1 7,1 11,1 20,0 36,-5 46,-16 8,-8 12,-19 12,-33 0,-13 -5,-25 -14,-32 -9,-8 -24,-12 -43,-12z"/>
  <g style="clip-path:url(#id15)">
   <image x="-4399" y="5341" width="41" height="47" xlink:href="COREL_Images\COREL_ImgID4.png"/>
  </g>
  <g style="clip-path:url(#id16)">
   <image x="-4401" y="5340" width="43" height="50" xlink:href="COREL_Images\COREL_ImgID5.png"/>
  </g>
  <g style="clip-path:url(#id17)">
   <image x="-4319" y="5356" width="66" height="112" xlink:href="COREL_Images\COREL_ImgID6.png"/>
  </g>
  <g style="clip-path:url(#id18)">
   <image x="-4318" y="5359" width="62" height="108" xlink:href="COREL_Images\COREL_ImgID7.png"/>
  </g>
  <path class="fil14" d="M-4288 5467l-29 0 0 -72c0,-14 0,-25 -1,-34l25 0 1 20 1 0c5,-15 18,-23 29,-23 3,0 4,0 6,1l0 25c-2,0 -5,-1 -8,-1 -13,0 -22,8 -24,20 0,2 -1,5 -1,8l0 55zm-28 -105c1,8 1,18 1,33l0 71 26 0 0 -54c0,-3 0,-6 1,-8 3,-13 12,-22 26,-22 2,0 4,0 6,0l0 -22c-1,0 -3,0 -5,0 -9,0 -22,6 -28,21l0 1 -1 0 -1 0 -2 0 0 -2 -1 -19 -22 0z"/>
  <circle class="fil15 str0" cx="-4342" cy="3591" r="177"/>
 </g>
</svg>
