<?xml version="1.0" encoding="UTF-8"?>
<!DOCTYPE svg PUBLIC "-//W3C//DTD SVG 1.1//EN" "http://www.w3.org/Graphics/SVG/1.1/DTD/svg11.dtd">
<!-- Creator: CorelDRAW 2017 -->
<svg xmlns="http://www.w3.org/2000/svg" xml:space="preserve" width="1.9685in" height="1.9685in" version="1.1" style="shape-rendering:geometricPrecision; text-rendering:geometricPrecision; image-rendering:optimizeQuality; fill-rule:evenodd; clip-rule:evenodd"
viewBox="0 0 1969 1969"
 xmlns:xlink="http://www.w3.org/1999/xlink">
 <defs>
  <style type="text/css">
   <![CDATA[
    .fil5 {fill:#B3AE92}
    .fil4 {fill:#937553}
    .fil0 {fill:#7EC363}
    .fil1 {fill:#3F362F}
    .fil2 {fill:#4E964E}
    .fil3 {fill:url(#id0)}
   ]]>
  </style>
  <linearGradient id="id0" gradientUnits="userSpaceOnUse" x1="923" y1="1006" x2="973" y2="466">
   <stop offset="0" style="stop-opacity:1; stop-color:#7EC363"/>
   <stop offset="1" style="stop-opacity:1; stop-color:#4E964E"/>
  </linearGradient>
 </defs>
 <g id="Layer_x0020_1">
  <metadata id="CorelCorpID_0Corel-Layer"/>
  <path class="fil0" d="M930 13c-53,8 -112,4 -168,13 -108,18 -337,70 -385,159 -82,152 -67,452 -22,635 72,296 326,551 587,684 67,34 64,36 132,4 164,-78 303,-206 401,-321 193,-226 264,-543 215,-855 -19,-125 -44,-174 -141,-222 -89,-44 -172,-63 -279,-83 -75,-14 -266,-26 -341,-14z"/>
  <path class="fil1" d="M917 123c-44,6 -93,6 -138,12 -82,11 -172,34 -243,67 -45,21 -64,26 -79,76 -48,162 -32,388 14,545 75,255 280,451 502,575 50,28 56,13 106,-16 135,-78 245,-176 329,-284 104,-133 145,-235 178,-435 17,-99 14,-313 -29,-409 -13,-29 -59,-48 -93,-61 -132,-54 -389,-88 -548,-68z"/>
  <path class="fil2" d="M1022 912c5,26 -3,65 -4,92 -1,32 -4,57 1,88 1,14 5,34 10,48 10,25 18,18 21,37 48,-56 91,-63 158,-193 115,-226 38,-480 -116,-661 -14,-16 -29,-28 -42,-44 -8,-10 -13,-19 -18,-28 -12,-23 -8,-19 -20,-27 14,80 7,251 8,344 0,61 -9,305 1,344z"/>
  <path class="fil3" d="M1022 912c-10,-39 -1,-283 -1,-344 0,-93 7,-264 -8,-344l-3 -17c-16,50 -66,80 -98,117 -19,23 -79,104 -84,138 -27,23 -54,151 -59,193 -16,148 2,266 92,391 28,39 93,116 128,130 16,-18 11,-41 16,-69 3,-17 3,-1 7,-23 5,20 -1,0 6,10 -5,-30 -2,-56 -1,-88 1,-27 9,-66 4,-92z"/>
  <path class="fil4" d="M1342 1620c5,21 -6,6 15,16 7,3 8,1 19,7 2,19 10,184 -1,202 -10,16 -16,4 -26,22l8 4c28,8 137,4 170,-10 110,-49 94,-206 0,-237 -24,-8 -171,-14 -185,-4zm287 6c8,14 17,6 34,16 5,29 4,183 -1,208 -21,7 -29,-1 -32,22 22,7 134,11 178,-17 43,-27 52,-89 5,-117l-17 -12c16,-16 31,-24 30,-54 -1,-28 -17,-42 -38,-50 -28,-10 -84,-5 -122,-6 -27,-1 -20,-5 -36,10zm-647 200c-15,11 -18,8 -26,23l11 17c1,1 2,2 2,3l7 8c-17,23 -68,47 -14,85 92,65 231,-98 89,-112 -49,-5 -50,3 -54,-19 16,-14 37,-6 61,-25 20,-16 25,-32 24,-66l11 -4c22,-9 18,-7 19,-29 -62,16 -82,-28 -139,9 -19,13 -29,32 -26,60 4,38 26,31 35,50zm442 -186c-12,12 -6,145 -5,172 2,67 88,43 114,13 39,-44 40,-149 -32,-181 -17,-8 -62,-18 -76,-5zm-221 63c-47,13 -80,39 -70,104 7,45 47,81 106,65 105,-29 74,-199 -36,-169zm-613 0c-46,14 -78,41 -68,103 8,47 49,80 105,66 108,-27 74,-203 -37,-169zm-339 20l-9 -22 -58 14c11,32 31,-19 30,73 -1,99 -16,43 -30,77 11,7 77,7 87,0 -5,-17 -7,-7 -24,-19l-1 -107c85,-54 81,40 75,107 -16,12 -19,2 -25,19 14,9 71,9 85,0 -5,-16 -9,-9 -25,-19l-1 -108c85,-43 79,37 73,110 -17,7 -17,2 -22,17 14,9 70,9 84,0 -4,-19 -7,-9 -26,-18 -3,-43 8,-102 -15,-131 -30,-38 -65,-8 -99,7 -14,-12 -23,-28 -49,-25 -19,2 -37,16 -51,24zm469 -8c9,40 30,-31 28,87l-1 46c-20,8 -18,-2 -24,17 12,8 76,9 88,0 -6,-22 -6,-5 -25,-20l-1 -101c17,-17 58,-30 72,3 8,19 5,78 3,100 -20,12 -16,-2 -23,19l86 0c-5,-12 -1,-4 -10,-11 -10,-8 -17,1 -17,-43 0,-23 2,-58 -5,-77 -15,-42 -66,-49 -98,-13 -11,-10 -3,-1 -10,-21l-63 15zm468 11c-50,38 -4,159 56,125 51,-28 8,-174 -56,-125zm-600 -6c-60,20 -29,154 38,135 54,-16 30,-158 -38,-135zm1118 24c-3,19 -6,81 3,96 11,20 60,17 79,-1 20,-20 35,-106 -81,-95zm-714 139c-58,34 9,86 63,63 23,-10 36,-40 14,-57 -16,-13 -58,-16 -76,-6zm717 -162c96,29 107,-101 -2,-85 -3,14 -7,70 2,85zm-712 -1c-39,22 -13,100 34,81 35,-14 16,-109 -34,-81z"/>
  <path class="fil5" d="M990 1174c15,50 13,75 18,133l29 11c10,-56 -12,-82 14,-141 -4,-19 -11,-12 -21,-37 -5,-13 -9,-33 -10,-48 -7,-10 -1,10 -6,-10 -4,22 -4,6 -7,23 -5,28 0,51 -16,69z"/>
 </g>
</svg>
