<?xml version="1.0" encoding="UTF-8"?>
<!DOCTYPE svg PUBLIC "-//W3C//DTD SVG 1.1//EN" "http://www.w3.org/Graphics/SVG/1.1/DTD/svg11.dtd">
<!-- Creator: CorelDRAW 2017 -->
<svg xmlns="http://www.w3.org/2000/svg" xml:space="preserve" width="1.9685in" height="1.9685in" version="1.1" style="shape-rendering:geometricPrecision; text-rendering:geometricPrecision; image-rendering:optimizeQuality; fill-rule:evenodd; clip-rule:evenodd"
viewBox="0 0 1969 1969"
 xmlns:xlink="http://www.w3.org/1999/xlink">
 <defs>
  <style type="text/css">
   <![CDATA[
    .fil5 {fill:url(#id7)}
    .fil2 {fill:url(#id8)}
    .fil6 {fill:url(#id9)}
    .fil0 {fill:url(#id10)}
    .fil1 {fill:url(#id11)}
    .fil3 {fill:url(#id12)}
    .fil4 {fill:url(#id13)}
   ]]>
  </style>
    <clipPath id="id0">
     <path d="M233 1899l-141 0 0 0 -1 0 0 -1739 142 0 0 1739 0 0z"/>
    </clipPath>
    <clipPath id="id1">
     <path d="M684 1449l-193 0 0 -889 15 -3c33,-6 69,-10 108,-13l221 0c77,10 138,33 182,70 47,39 78,96 88,160l0 98c-9,63 -34,117 -75,157 -66,65 -165,99 -287,99 -18,0 -39,-1 -59,-3l0 324zm-192 -1l0 0 181 0 0 -325c21,3 45,4 65,4 120,0 218,-34 282,-97 51,-49 77,-120 77,-204l0 0 0 0c0,-81 -33,-154 -89,-201 -58,-49 -147,-74 -263,-74 -94,0 -176,6 -244,18l-10 2 0 878 0 0z"/>
    </clipPath>
    <clipPath id="id2">
     <path d="M663 1438l-162 0 0 -860 2 0c68,-12 149,-18 242,-18 114,0 200,24 256,71 55,45 86,116 86,193 0,82 -26,150 -74,197 -63,62 -159,95 -276,95 -19,0 -42,-1 -64,-4l-11 -2 0 11 0 316zm10 -464l0 0c17,4 38,5 65,5 112,0 178,-55 178,-148l0 0 0 0c0,-87 -58,-135 -164,-135 -40,0 -65,3 -79,6l0 272 0 0 0 0z"/>
    </clipPath>
    <clipPath id="id3">
     <path d="M743 968c-24,0 -43,-1 -59,-4l0 -262c15,-2 39,-5 73,-5 30,0 56,4 78,12 36,13 60,37 72,69 5,14 8,30 8,48 0,89 -64,142 -172,142l0 0z"/>
    </clipPath>
    <clipPath id="id4">
     <path d="M738 979c-27,0 -48,-1 -65,-5l0 -272c14,-2 40,-6 79,-6 32,0 60,4 83,13 -22,-8 -48,-12 -78,-12 -35,0 -58,2 -73,5l0 262c16,3 36,4 59,4 108,0 172,-53 172,-142 0,-18 -3,-34 -8,-48 6,16 9,33 9,53 0,92 -67,147 -178,147l0 0z"/>
    </clipPath>
    <clipPath id="id5">
     <path d="M1347 1449l-184 0 0 -437c0,-92 -2,-152 -5,-205l0 -6 162 0 6 107c29,-66 83,-104 134,-116l82 0 0 162 -6 -1c-15,-2 -29,-4 -47,-4 -71,0 -124,45 -138,117 -2,14 -4,30 -4,47l0 336zm-183 -1l0 0 172 0 0 -330c0,-17 1,-34 4,-48 14,-73 68,-121 144,-121 19,0 34,1 48,4l0 -150 0 0c-13,-3 -22,-4 -38,-4 -69,0 -144,46 -175,135l-4 0 -7 -120 -150 0 0 0c4,56 5,119 5,205l0 431 0 0z"/>
    </clipPath>
    <clipPath id="id6">
     <path d="M1326 1438l-153 0 0 -421c0,-87 -1,-145 -4,-195l130 0 6 111 1 9 9 0 4 0 7 0 2 -7c33,-94 110,-128 166,-128 11,0 19,1 28,2l0 131c-12,-1 -24,-2 -38,-2 -79,0 -138,50 -153,130 -3,14 -4,32 -4,50l0 321 0 0z"/>
    </clipPath>
  <linearGradient id="id7" gradientUnits="userSpaceOnUse" x1="795" y1="550" x2="795" y2="1448">
   <stop offset="0" style="stop-opacity:1; stop-color:#DED3E5"/>
   <stop offset="1" style="stop-opacity:1; stop-color:#C9BBD7"/>
  </linearGradient>
  <linearGradient id="id8" gradientUnits="userSpaceOnUse" x1="1006" y1="160" x2="1006" y2="1899">
   <stop offset="0" style="stop-opacity:1; stop-color:#A388B8"/>
   <stop offset="1" style="stop-opacity:1; stop-color:#5A4E67"/>
  </linearGradient>
  <linearGradient id="id9" gradientUnits="userSpaceOnUse" xlink:href="#id7" x1="1345" y1="798" x2="1345" y2="1448">
  </linearGradient>
  <linearGradient id="id10" gradientUnits="userSpaceOnUse" x1="0" y1="939" x2="1843" y2="939">
   <stop offset="0" style="stop-opacity:1; stop-color:#D5C5DC"/>
   <stop offset="1" style="stop-opacity:1; stop-color:#B9A8CD"/>
  </linearGradient>
  <linearGradient id="id11" gradientUnits="userSpaceOnUse" x1="46" y1="1899" x2="46" y2="69">
   <stop offset="0" style="stop-opacity:1; stop-color:#5A4E67"/>
   <stop offset="1" style="stop-opacity:1; stop-color:#766485"/>
  </linearGradient>
  <linearGradient id="id12" gradientUnits="userSpaceOnUse" x1="1012" y1="160" x2="1012" y2="1899">
   <stop offset="0" style="stop-opacity:1; stop-color:#665673"/>
   <stop offset="1" style="stop-opacity:1; stop-color:#3E3647"/>
  </linearGradient>
  <linearGradient id="id13" gradientUnits="userSpaceOnUse" xlink:href="#id12" x1="1012" y1="160" x2="1012" y2="1899">
  </linearGradient>
 </defs>
 <g id="Layer_x0020_1">
  <metadata id="CorelCorpID_0Corel-Layer"/>
  <g id="_1899836804944">
   <path class="fil0" d="M0 1808l0 -1739 0 1739zm0 -1739l1843 0 0 91 -1751 0 0 0 -91 -90z"/>
   <path class="fil1" d="M91 1899l0 0 0 0 0 0zm-1 -1l-91 -89 0 -1740 91 90 0 0 -1 0 0 1738z"/>
   <path class="fil2" d="M1968 1899l-1777 0 0 -1739 1777 0 0 1739zm-1777 -1739l-148 0 148 0zm-148 0l0 1739 0 -1739z"/>
   <g style="clip-path:url(#id0)">
    <image x="75" y="146" width="172" height="1766" xlink:href="PR_Images\PR_ImgID1.png"/>
   </g>
   <path class="fil3" d="M1105 872l0 -98c2,15 4,30 4,46 0,18 -1,35 -4,52zm-270 -327l-221 0c42,-3 88,-5 137,-5 30,0 58,2 84,5z"/>
   <path class="fil4" d="M1543 954l-1 0 0 -162 -83 0c13,-3 27,-5 40,-5 16,0 26,1 39,4l5 1 0 162z"/>
   <g style="clip-path:url(#id1)">
    <image x="485" y="538" width="625" height="916" xlink:href="PR_Images\PR_ImgID2.png"/>
   </g>
   <g style="clip-path:url(#id2)">
    <image x="493" y="552" width="598" height="893" xlink:href="PR_Images\PR_ImgID3.png"/>
   </g>
   <path class="fil5" d="M673 1448l-181 0 0 -878 10 -2c68,-12 150,-18 244,-18 116,0 204,25 263,73 57,47 89,120 89,201 0,85 -27,155 -77,204 -65,64 -163,97 -283,97 -20,0 -44,-1 -65,-4l0 326zm73 -888c-93,0 -175,6 -242,18l-2 0 0 860 162 0 0 -327 11 2c21,3 44,4 63,4 117,0 213,-33 276,-95 48,-47 74,-115 74,-197 0,-78 -31,-148 -86,-193 -56,-47 -143,-71 -256,-71z"/>
   <g style="clip-path:url(#id3)">
    <image x="677" y="693" width="247" height="280" xlink:href="PR_Images\PR_ImgID4.png"/>
   </g>
   <g style="clip-path:url(#id4)">
    <image x="667" y="689" width="256" height="297" xlink:href="PR_Images\PR_ImgID5.png"/>
   </g>
   <g style="clip-path:url(#id5)">
    <image x="1152" y="786" width="397" height="668" xlink:href="PR_Images\PR_ImgID6.png"/>
   </g>
   <g style="clip-path:url(#id6)">
    <image x="1161" y="800" width="368" height="645" xlink:href="PR_Images\PR_ImgID7.png"/>
   </g>
   <path class="fil6" d="M1336 1448l-172 0 0 -431c0,-86 -1,-149 -5,-205l150 0 7 120 4 0c31,-89 106,-134 175,-134 16,0 25,1 38,4l0 150c-14,-3 -29,-4 -48,-4 -76,0 -129,48 -144,121 -3,14 -4,31 -4,48l0 330zm-167 -626c3,51 5,108 5,195l0 421 153 0 0 -321c0,-18 1,-35 4,-50 16,-80 74,-130 153,-130 15,0 27,1 39,2l0 -131c-9,-2 -17,-2 -28,-2 -56,0 -132,34 -166,128l-2 7 -7 0 -4 0 -9 0 -1 -9 -6 -111 -130 0z"/>
  </g>
 </g>
</svg>
