<?xml version="1.0" encoding="UTF-8"?>
<!DOCTYPE svg PUBLIC "-//W3C//DTD SVG 1.1//EN" "http://www.w3.org/Graphics/SVG/1.1/DTD/svg11.dtd">
<!-- Creator: CorelDRAW 2017 -->
<svg xmlns="http://www.w3.org/2000/svg" xml:space="preserve" width="1.9685in" height="1.9685in" version="1.1" style="shape-rendering:geometricPrecision; text-rendering:geometricPrecision; image-rendering:optimizeQuality; fill-rule:evenodd; clip-rule:evenodd"
viewBox="0 0 1969 1969"
 xmlns:xlink="http://www.w3.org/1999/xlink">
 <defs>
  <style type="text/css">
   <![CDATA[
    .str1 {stroke:#FEFEFE;stroke-width:7.87402}
    .str0 {stroke:#397CBB;stroke-width:3}
    .fil33 {fill:#FEFEFE}
    .fil8 {fill:#6ECEEE;fill-rule:nonzero}
    .fil11 {fill:url(#id30)}
    .fil19 {fill:url(#id31)}
    .fil27 {fill:url(#id32)}
    .fil21 {fill:url(#id33)}
    .fil32 {fill:url(#id34)}
    .fil24 {fill:url(#id35)}
    .fil7 {fill:url(#id36)}
    .fil22 {fill:url(#id37)}
    .fil18 {fill:url(#id38)}
    .fil28 {fill:url(#id39)}
    .fil31 {fill:url(#id40)}
    .fil20 {fill:url(#id41)}
    .fil16 {fill:url(#id42)}
    .fil26 {fill:url(#id43)}
    .fil25 {fill:url(#id44)}
    .fil10 {fill:url(#id45)}
    .fil15 {fill:url(#id46)}
    .fil17 {fill:url(#id47)}
    .fil6 {fill:url(#id48)}
    .fil14 {fill:url(#id49)}
    .fil9 {fill:url(#id50)}
    .fil13 {fill:url(#id51)}
    .fil4 {fill:url(#id52)}
    .fil23 {fill:url(#id53)}
    .fil3 {fill:url(#id54)}
    .fil2 {fill:url(#id55)}
    .fil12 {fill:url(#id56)}
    .fil0 {fill:url(#id57)}
    .fil5 {fill:url(#id58)}
    .fil30 {fill:url(#id59)}
    .fil1 {fill:url(#id60)}
    .fil29 {fill:url(#id61)}
   ]]>
  </style>
    <mask id="id0">
  <linearGradient id="id1" gradientUnits="userSpaceOnUse" x1="-4276" y1="3895" x2="-4286" y2="4145">
   <stop offset="0" style="stop-opacity:1; stop-color:white"/>
   <stop offset="1" style="stop-opacity:0; stop-color:white"/>
  </linearGradient>
     <rect style="fill:url(#id1)" x="-4303" y="3906" width="49" height="256"/>
    </mask>
    <mask id="id2">
  <linearGradient id="id3" gradientUnits="userSpaceOnUse" x1="-4322" y1="3893" x2="-4317" y2="4194">
   <stop offset="0" style="stop-opacity:1; stop-color:white"/>
   <stop offset="1" style="stop-opacity:0; stop-color:white"/>
  </linearGradient>
     <rect style="fill:url(#id3)" x="-4345" y="3898" width="50" height="298"/>
    </mask>
    <mask id="id4">
  <linearGradient id="id5" gradientUnits="userSpaceOnUse" x1="-4370" y1="3906" x2="-4368" y2="4189">
   <stop offset="0" style="stop-opacity:1; stop-color:white"/>
   <stop offset="1" style="stop-opacity:0; stop-color:white"/>
  </linearGradient>
     <rect style="fill:url(#id5)" x="-4388" y="3898" width="48" height="298"/>
    </mask>
    <mask id="id6">
  <linearGradient id="id7" gradientUnits="userSpaceOnUse" x1="-4390" y1="3871" x2="-4392" y2="4147">
   <stop offset="0" style="stop-opacity:1; stop-color:white"/>
   <stop offset="1" style="stop-opacity:0; stop-color:white"/>
  </linearGradient>
     <rect style="fill:url(#id7)" x="-4423" y="3907" width="46" height="253"/>
    </mask>
    <mask id="id8">
  <linearGradient id="id9" gradientUnits="userSpaceOnUse" x1="-4420" y1="3881" x2="-4451" y2="4132">
   <stop offset="0" style="stop-opacity:1; stop-color:white"/>
   <stop offset="1" style="stop-opacity:0; stop-color:white"/>
  </linearGradient>
     <rect style="fill:url(#id9)" x="-4461" y="3930" width="51" height="194"/>
    </mask>
    <mask id="id10">
  <linearGradient id="id11" gradientUnits="userSpaceOnUse" x1="-4241" y1="3905" x2="-4241" y2="4101">
   <stop offset="0" style="stop-opacity:1; stop-color:white"/>
   <stop offset="1" style="stop-opacity:0; stop-color:white"/>
  </linearGradient>
     <rect style="fill:url(#id11)" x="-4270" y="3930" width="51" height="194"/>
    </mask>
    <clipPath id="id12">
     <path d="M237 1915l-145 0 0 -1770 145 0 0 1770 0 0z"/>
    </clipPath>
    <clipPath id="id13">
     <path d="M629 1491l-197 0 0 -905 1 0 0 888 184 0 0 -332c22,3 45,4 66,4 122,0 221,-34 288,-99 51,-50 78,-122 78,-208l0 0 0 0c0,-82 -33,-157 -91,-205 -3,-3 -6,-5 -10,-8 7,4 13,9 19,14 59,49 93,125 93,209 0,88 -28,161 -80,213 -67,66 -168,101 -292,101 -19,0 -40,0 -60,-3l0 331 0 0z"/>
    </clipPath>
    <clipPath id="id14">
     <path d="M1304 1491c-75,0 -149,-17 -203,-47l-13 -7 4 -13 7 4c53,29 125,46 200,46 168,0 272,-81 272,-213l0 0 0 0c-1,-66 -25,-116 -77,-155 59,40 87,94 88,166 0,135 -106,219 -278,219zm85 -204c0,0 0,-1 0,-2 0,-25 -6,-44 -93,-76 -155,-52 -188,-139 -188,-203 0,-11 1,-21 2,-31 -1,7 -1,13 -1,20l0 0 0 0c0,62 32,146 183,197 83,30 97,50 97,81 0,5 0,9 -1,13zm-73 -265c-20,-13 -27,-26 -27,-43 0,-35 30,-56 77,-56 52,0 102,19 129,35l14 8 40 -136 13 7 -44 150 -20 -12c-26,-16 -75,-34 -125,-34 -44,0 -71,19 -71,50 0,12 3,22 16,32l0 0z"/>
    </clipPath>
    <clipPath id="id15">
     <path d="M685 996c-22,0 -40,-1 -55,-3l0 -262c15,-2 39,-5 75,-5 104,0 161,46 161,131 0,4 0,8 0,12 -10,80 -76,127 -180,127l0 0z"/>
    </clipPath>
    <clipPath id="id16">
     <path d="M629 993c-4,-1 -8,-1 -11,-2l0 -276c14,-3 40,-6 81,-6 108,0 167,49 167,137 0,8 -1,16 -1,23 0,-4 0,-8 0,-12 0,-84 -57,-131 -161,-131 -35,0 -59,2 -75,5l0 262 0 0z"/>
    </clipPath>
   <clipPath id="id17">
    <path d="M-4470 5086l-24 0 0 -291 24 0 0 291 0 0z"/>
   </clipPath>
   <clipPath id="id18">
    <path d="M-4294 5016l-35 0 -13 -41 -41 0 -12 41 -34 0 1 -3 31 0 13 -41 43 0 13 41 33 0 -48 -148 1 0 0 1 49 151 0 0z"/>
   </clipPath>
   <clipPath id="id19">
    <path d="M-4267 4896c-10,0 -18,-7 -18,-17 0,0 0,-1 0,-1 0,9 7,16 17,16 10,0 17,-7 17,-16l0 0 0 0c0,-6 -3,-10 -7,-13 5,3 9,8 9,15 0,10 -8,17 -18,17l0 0z"/>
   </clipPath>
   <clipPath id="id20">
    <path d="M-4250 5016l-33 0 0 -111 0 0 0 108 31 0 0 -108 2 0 0 111 0 0z"/>
   </clipPath>
   <clipPath id="id21">
    <path d="M-4348 4948l-29 0 10 -31c1,-5 3,-11 4,-16 1,6 3,11 5,17l10 31 0 0z"/>
   </clipPath>
   <clipPath id="id22">
    <path d="M-4348 4948l-1 0 -10 -31c-2,-5 -3,-11 -5,-17 -1,6 -3,11 -4,16l-10 31 -3 0 10 -33c2,-6 3,-12 5,-18 0,-1 0,-2 1,-3 2,7 4,14 6,20l11 33 0 0z"/>
   </clipPath>
   <clipPath id="id23">
    <path d="M-4473 5543l-24 0 0 0 0 0 0 -291 24 0 0 291 0 0z"/>
   </clipPath>
   <clipPath id="id24">
    <path d="M-4398 5467l-32 0 0 -149 3 0c6,-1 12,-2 18,-2l37 0c13,2 23,6 30,12 8,7 13,16 15,27l0 16c-1,11 -6,20 -13,26 -11,11 -28,17 -48,17 -3,0 -7,0 -10,0l0 54zm-32 0l0 0 30 0 0 -55c4,1 7,1 11,1 20,0 36,-6 47,-16 8,-8 13,-20 13,-34l0 0 0 0c0,-14 -5,-26 -15,-34 -10,-8 -25,-12 -44,-12 -16,0 -29,1 -41,3l-2 0 0 147 0 0z"/>
   </clipPath>
   <clipPath id="id25">
    <path d="M-4401 5466l-27 0 0 -144 0 0c11,-2 25,-3 41,-3 19,0 33,4 43,12 9,8 14,19 14,32 0,14 -4,25 -12,33 -11,10 -27,16 -46,16 -3,0 -7,0 -11,-1l-2 0 0 2 0 53zm2 -78l0 0c3,1 6,1 11,1 19,0 30,-9 30,-25l0 0 0 0c0,-15 -10,-23 -27,-23 -7,0 -11,1 -13,1l0 45 0 0 0 0z"/>
   </clipPath>
   <clipPath id="id26">
    <path d="M-4388 5387c-4,0 -7,0 -10,-1l0 -44c3,0 6,-1 12,-1 5,0 9,1 13,2 6,2 10,6 12,12 1,2 1,5 1,8 0,15 -11,24 -29,24l0 0z"/>
   </clipPath>
   <clipPath id="id27">
    <path d="M-4389 5389c-4,0 -8,0 -11,-1l0 -45c2,0 7,-1 13,-1 5,0 10,1 14,2 -4,-1 -8,-2 -13,-2 -6,0 -10,0 -12,1l0 44c3,1 6,1 10,1 18,0 29,-9 29,-24 0,-3 0,-6 -1,-8 1,3 1,6 1,9 0,15 -11,25 -30,25l0 0z"/>
   </clipPath>
   <clipPath id="id28">
    <path d="M-4287 5467l-31 0 0 -73c0,-15 0,-25 -1,-34l0 -1 27 0 1 18c5,-11 14,-17 23,-19l14 0 0 27 -1 0c-2,0 -5,-1 -8,-1 -12,0 -21,7 -23,20 0,2 -1,5 -1,8l0 56zm-31 0l0 0 29 0 0 -55c0,-3 0,-6 1,-8 2,-12 11,-20 24,-20 3,0 6,0 8,1l0 -25 0 0c-2,0 -4,-1 -6,-1 -12,0 -24,8 -29,23l-1 0 -1 -20 -25 0 0 0c1,9 1,20 1,34l0 72 0 0z"/>
   </clipPath>
   <clipPath id="id29">
    <path d="M-4290 5466l-26 0 0 -71c0,-15 0,-24 -1,-33l22 0 1 19 0 2 2 0 1 0 1 0 0 -1c6,-16 18,-21 28,-21 2,0 3,0 5,0l0 22c-2,0 -4,0 -6,0 -13,0 -23,8 -26,22 0,2 -1,5 -1,8l0 54 0 0z"/>
   </clipPath>
  <linearGradient id="id30" gradientUnits="userSpaceOnUse" x1="434" y1="1016" x2="1050" y2="1016">
   <stop offset="0" style="stop-opacity:1; stop-color:#66CCF0"/>
   <stop offset="1" style="stop-opacity:1; stop-color:#51C4F1"/>
  </linearGradient>
  <linearGradient id="id31" gradientUnits="userSpaceOnUse" x1="-4363" y1="5014" x2="-4363" y2="4864">
   <stop offset="0" style="stop-opacity:1; stop-color:#FCD64E"/>
   <stop offset="1" style="stop-opacity:1; stop-color:#FCD64E"/>
  </linearGradient>
  <linearGradient id="id32" gradientUnits="userSpaceOnUse" x1="-4505" y1="5543" x2="-4505" y2="5236">
   <stop offset="0" style="stop-opacity:1; stop-color:#5A4E67"/>
   <stop offset="1" style="stop-opacity:1; stop-color:#766485"/>
  </linearGradient>
  <linearGradient id="id33" gradientUnits="userSpaceOnUse" xlink:href="#id31" x1="-4267" y1="5014" x2="-4267" y2="4905">
  </linearGradient>
  <linearGradient id="id34" gradientUnits="userSpaceOnUse" x1="-4287" y1="5358" x2="-4287" y2="5467">
   <stop offset="0" style="stop-opacity:1; stop-color:#DED3E5"/>
   <stop offset="1" style="stop-opacity:1; stop-color:#C9BBD7"/>
  </linearGradient>
  <linearGradient id="id35" gradientUnits="userSpaceOnUse" x1="-4267" y1="4894" x2="-4267" y2="4861">
   <stop offset="0" style="stop-opacity:1; stop-color:#FCDF7E"/>
   <stop offset="1" style="stop-opacity:1; stop-color:#FCDF7E"/>
  </linearGradient>
  <linearGradient id="id36" gradientUnits="userSpaceOnUse" x1="-4337" y1="4196" x2="-4337" y2="4208">
   <stop offset="0" style="stop-opacity:1; stop-color:#8CCF3A"/>
   <stop offset="1" style="stop-opacity:1; stop-color:#00A859"/>
  </linearGradient>
  <linearGradient id="id37" gradientUnits="userSpaceOnUse" xlink:href="#id35" x1="-4363" y1="5014" x2="-4363" y2="4864">
  </linearGradient>
  <linearGradient id="id38" gradientUnits="userSpaceOnUse" x1="-4502" y1="5086" x2="-4502" y2="4780">
   <stop offset="0" style="stop-opacity:1; stop-color:#874E33"/>
   <stop offset="1" style="stop-opacity:1; stop-color:#CF6C41"/>
  </linearGradient>
  <linearGradient id="id39" gradientUnits="userSpaceOnUse" x1="-4344" y1="5252" x2="-4344" y2="5543">
   <stop offset="0" style="stop-opacity:1; stop-color:#A388B8"/>
   <stop offset="1" style="stop-opacity:1; stop-color:#5A4E67"/>
  </linearGradient>
  <linearGradient id="id40" gradientUnits="userSpaceOnUse" xlink:href="#id34" x1="-4379" y1="5317" x2="-4379" y2="5467">
  </linearGradient>
  <linearGradient id="id41" gradientUnits="userSpaceOnUse" xlink:href="#id31" x1="-4267" y1="4894" x2="-4267" y2="4861">
  </linearGradient>
  <linearGradient id="id42" gradientUnits="userSpaceOnUse" x1="-4355" y1="5071" x2="-4355" y2="4780">
   <stop offset="0" style="stop-opacity:1; stop-color:#B2943E"/>
   <stop offset="1" style="stop-opacity:1; stop-color:#FCD64E"/>
  </linearGradient>
  <linearGradient id="id43" gradientUnits="userSpaceOnUse" x1="-4512" y1="5382" x2="-4204" y2="5382">
   <stop offset="0" style="stop-opacity:1; stop-color:#D5C5DC"/>
   <stop offset="1" style="stop-opacity:1; stop-color:#B9A8CD"/>
  </linearGradient>
  <linearGradient id="id44" gradientUnits="userSpaceOnUse" xlink:href="#id35" x1="-4267" y1="5014" x2="-4267" y2="4905">
  </linearGradient>
  <linearGradient id="id45" gradientUnits="userSpaceOnUse" x1="46" y1="1915" x2="46" y2="53">
   <stop offset="0" style="stop-opacity:1; stop-color:#2E3E5C"/>
   <stop offset="1" style="stop-opacity:1; stop-color:#26629F"/>
  </linearGradient>
  <linearGradient id="id46" gradientUnits="userSpaceOnUse" x1="1091" y1="1128" x2="1570" y2="1128">
   <stop offset="0" style="stop-opacity:1; stop-color:#92D8F2"/>
   <stop offset="1" style="stop-opacity:1; stop-color:#83CFF3"/>
  </linearGradient>
  <linearGradient id="id47" gradientUnits="userSpaceOnUse" x1="-4340" y1="5086" x2="-4340" y2="4795">
   <stop offset="0" style="stop-opacity:1; stop-color:#A95937"/>
   <stop offset="1" style="stop-opacity:1; stop-color:#E7883B"/>
  </linearGradient>
  <linearGradient id="id48" gradientUnits="userSpaceOnUse" x1="-4251" y1="3944" x2="-4256" y2="4106">
   <stop offset="0" style="stop-opacity:1; stop-color:#A8CF45"/>
   <stop offset="1" style="stop-opacity:1; stop-color:#FEFEFE"/>
  </linearGradient>
  <linearGradient id="id49" gradientUnits="userSpaceOnUse" xlink:href="#id46" x1="434" y1="1016" x2="1050" y2="1016">
  </linearGradient>
  <linearGradient id="id50" gradientUnits="userSpaceOnUse" x1="1031" y1="145" x2="1031" y2="1915">
   <stop offset="0" style="stop-opacity:1; stop-color:#3A80C1"/>
   <stop offset="1" style="stop-opacity:1; stop-color:#2F507D"/>
  </linearGradient>
  <linearGradient id="id51" gradientUnits="userSpaceOnUse" xlink:href="#id46" x1="434" y1="1016" x2="1050" y2="1016">
  </linearGradient>
  <linearGradient id="id52" gradientUnits="userSpaceOnUse" xlink:href="#id48" x1="-4386" y1="3913" x2="-4392" y2="4147">
  </linearGradient>
  <linearGradient id="id53" gradientUnits="userSpaceOnUse" xlink:href="#id35" x1="-4363" y1="4952" x2="-4363" y2="4943">
  </linearGradient>
  <linearGradient id="id54" gradientUnits="userSpaceOnUse" xlink:href="#id48" x1="-4356" y1="3903" x2="-4358" y2="4181">
  </linearGradient>
  <linearGradient id="id55" gradientUnits="userSpaceOnUse" xlink:href="#id48" x1="-4331" y1="3902" x2="-4332" y2="4184">
  </linearGradient>
  <linearGradient id="id56" gradientUnits="userSpaceOnUse" xlink:href="#id30" x1="1091" y1="1128" x2="1570" y2="1128">
  </linearGradient>
  <linearGradient id="id57" gradientUnits="userSpaceOnUse" x1="-4333" y1="3902" x2="-4339" y2="4193">
   <stop offset="0" style="stop-opacity:1; stop-color:#00A859"/>
   <stop offset="0.701961" style="stop-opacity:1; stop-color:#34AA2C"/>
   <stop offset="1" style="stop-opacity:1; stop-color:#A8CF45"/>
  </linearGradient>
  <linearGradient id="id58" gradientUnits="userSpaceOnUse" xlink:href="#id48" x1="-4434" y1="3949" x2="-4428" y2="4099">
  </linearGradient>
  <linearGradient id="id59" gradientUnits="userSpaceOnUse" x1="-4343" y1="5251" x2="-4343" y2="5543">
   <stop offset="0" style="stop-opacity:1; stop-color:#665673"/>
   <stop offset="1" style="stop-opacity:1; stop-color:#3E3647"/>
  </linearGradient>
  <linearGradient id="id60" gradientUnits="userSpaceOnUse" xlink:href="#id48" x1="-4291" y1="3913" x2="-4295" y2="4149">
  </linearGradient>
  <linearGradient id="id61" gradientUnits="userSpaceOnUse" xlink:href="#id59" x1="-4343" y1="5252" x2="-4343" y2="5543">
  </linearGradient>
 </defs>
 <g id="Layer_x0020_1">
  <metadata id="CorelCorpID_0Corel-Layer"/>
  <g id="_1899836828272">
   <path class="fil0" d="M-4251 3944c-54,-56 -118,-58 -179,0 -59,72 -10,167 86,249l14 0c82,-83 145,-172 80,-249z"/>
   <path class="fil1" style="mask:url(#id0)" d="M-4283 3917c39,77 32,152 -3,227l-12 14c27,-87 29,-170 -1,-249l16 8z"/>
   <path class="fil2" style="mask:url(#id2)" d="M-4331 3902c39,88 44,197 9,282l-9 9c27,-99 19,-201 -11,-291l11 0z"/>
   <path class="fil3" style="mask:url(#id4)" d="M-4356 3903c-39,88 -37,192 -2,278l15 12c-27,-99 -33,-200 -2,-291l-10 1z"/>
   <path class="fil4" style="mask:url(#id6)" d="M-4392 3916c-39,69 -35,163 0,231l9 10c-27,-78 -28,-175 2,-246l-12 6z"/>
   <path class="fil5" style="mask:url(#id8)" d="M-4434 3949c-39,69 -24,90 11,157l10 15c-27,-78 -36,-116 -6,-187l-16 15z"/>
   <path class="fil6" style="mask:url(#id10)" d="M-4245 3948c39,69 24,90 -11,157l-10 15c27,-78 36,-116 6,-187l16 15z"/>
   <rect class="fil7" x="-4344" y="4196" width="14" height="12" rx="1" ry="1"/>
  </g>
  <g id="_1899836825648">
   <polygon class="fil8" points="0,1823 1876,1823 1876,53 0,53 "/>
   <path class="fil9 str0" d="M1969 1915l-1731 0 0 -1770 1731 0 0 1770zm-1731 -1770l-145 0 145 0zm-145 0l0 1770 0 -1770z"/>
   <polygon class="fil10" points="0,1824 93,1915 93,145 0,53 "/>
   <g style="clip-path:url(#id12)">
    <image x="76" y="131" width="173" height="1796" xlink:href="PS_Images\PS_ImgID1.png"/>
   </g>
   <g style="clip-path:url(#id13)">
    <image x="426" y="580" width="641" height="919" xlink:href="PS_Images\PS_ImgID2.png"/>
   </g>
   <g style="clip-path:url(#id14)">
    <image x="1084" y="823" width="503" height="676" xlink:href="PS_Images\PS_ImgID3.png"/>
   </g>
   <path class="fil11" d="M608 1463l-164 0 0 -875 2 0c69,-12 152,-18 247,-18 115,0 203,25 261,73l0 0c55,46 87,118 87,197 0,83 -26,153 -75,201 -64,63 -161,96 -281,96 -20,0 -43,0 -65,-4l-11 -2 0 333zm10 -473l0 0c18,4 39,5 66,5 114,0 181,-56 181,-150 0,-88 -59,-137 -167,-137 -40,0 -66,3 -81,6l0 276zm248 -145l0 0z"/>
   <path class="fil12" d="M1299 1464c-73,0 -144,-16 -195,-45l-2 -1 34 -123 3 2c36,23 105,47 161,47 64,0 100,-25 100,-70 0,-41 -24,-62 -103,-91 -146,-49 -177,-130 -177,-188 0,-119 100,-201 243,-201 64,0 128,14 171,38l2 1 -34 117 -3 -2c-28,-17 -80,-36 -134,-36 -53,0 -87,26 -87,66 0,39 29,57 110,87 117,41 170,101 172,196 0,125 -100,203 -262,203z"/>
   <path class="fil13" d="M618 1473l-184 0 0 -894 10 -2c69,-12 153,-18 248,-18 118,0 208,25 267,75 58,48 91,122 91,205 0,86 -27,158 -78,208 -66,65 -166,99 -288,99 -21,0 -44,-1 -66,-4l0 331zm74 -904c-95,0 -178,6 -247,18l-2 0 0 875 164 0 0 -333 11 2c22,3 45,4 65,4 119,0 216,-33 281,-96 49,-48 75,-117 75,-201 0,-79 -32,-151 -87,-197l0 0c-57,-48 -145,-73 -261,-73z"/>
   <g style="clip-path:url(#id15)">
    <image x="621" y="717" width="251" height="285" xlink:href="PS_Images\PS_ImgID4.png"/>
   </g>
   <g style="clip-path:url(#id16)">
    <image x="611" y="703" width="261" height="295" xlink:href="PS_Images\PS_ImgID5.png"/>
   </g>
   <path class="fil14" d="M685 996c-27,0 -48,-1 -66,-5l0 0c4,1 7,2 11,2 15,2 33,3 55,3 104,0 169,-47 180,-127 1,-7 1,-15 1,-23l0 0c0,94 -68,150 -181,150z"/>
   <path class="fil15" d="M1299 1473c-74,0 -147,-17 -200,-46l-9 -5 40 -143 14 9c35,22 101,45 156,45 34,0 90,-8 90,-60 0,-32 -14,-51 -97,-81 -152,-51 -184,-136 -184,-198 0,-125 104,-211 253,-211 65,0 131,15 176,39l9 5 -40 137 -14 -8c-27,-16 -77,-35 -129,-35 -47,0 -77,21 -77,56 0,31 21,47 103,77 122,42 177,106 178,205 0,131 -104,213 -272,213zm91 -199l0 0zm-101 -296l0 0zm-152 317l-34 123 2 1c51,28 122,45 195,45 161,0 262,-78 262,-203 -1,-94 -54,-155 -172,-196 -81,-30 -110,-48 -110,-87 0,-40 34,-66 87,-66 54,0 106,20 134,36l3 2 34 -117 -2 -1c-43,-24 -107,-38 -171,-38 -143,0 -243,83 -243,201 0,59 31,139 177,188 79,29 103,50 103,91 0,44 -36,70 -100,70 -56,0 -125,-24 -161,-47l-3 -2z"/>
  </g>
  <polygon class="fil16" points="-4494,5071 -4494,5071 -4494,4795 -4509,4780 -4509,5071 -4509,4780 -4201,4780 -4201,4795 -4494,4795 "/>
  <path class="fil17" d="M-4185 5086l-285 0 0 -291 285 0 0 291zm-285 -291l-24 0 24 0zm-24 0l0 291 0 -291z"/>
  <polygon class="fil18" points="-4494,5086 -4509,5071 -4509,4780 -4494,4795 "/>
  <g style="clip-path:url(#id17)">
   <image x="-4496" y="4793" width="29" height="295" xlink:href="PS_Images\PS_ImgID6.png"/>
  </g>
  <g style="clip-path:url(#id18)">
   <image x="-4431" y="4864" width="138" height="153" xlink:href="PS_Images\PS_ImgID7.png"/>
  </g>
  <g style="clip-path:url(#id19)">
   <image x="-4285" y="4863" width="38" height="35" xlink:href="PS_Images\PS_ImgID8.png"/>
  </g>
  <g style="clip-path:url(#id20)">
   <image x="-4284" y="4904" width="34" height="114" xlink:href="PS_Images\PS_ImgID9.png"/>
  </g>
  <path class="fil19" d="M-4298 5012l-29 0 -13 -40 0 -1 -45 0 0 1 -12 40 -28 0 47 -146 34 0 47 146zm-81 -64l32 0 -11 -33c-2,-7 -4,-14 -6,-20 0,1 0,2 -1,3 -1,6 -3,12 -5,18l-10 33z"/>
  <path class="fil20" d="M-4268 4892c-9,0 -15,-6 -15,-15 0,-9 6,-15 15,-15 9,0 15,6 15,15 0,8 -7,15 -15,15z"/>
  <polygon class="fil21" points="-4281,5012 -4254,5012 -4254,4906 -4281,4906 "/>
  <path class="fil22" d="M-4296 5014l-33 0 -13 -41 -43 0 -13 41 -32 0 48 -149 37 0 49 149zm-90 -43l45 0 0 1 13 40 29 0 -47 -146 -34 0 -47 146 28 0 12 -40 0 -1z"/>
  <g style="clip-path:url(#id21)">
   <image x="-4378" y="4900" width="30" height="50" xlink:href="PS_Images\PS_ImgID10.png"/>
  </g>
  <g style="clip-path:url(#id22)">
   <image x="-4380" y="4894" width="33" height="55" xlink:href="PS_Images\PS_ImgID11.png"/>
  </g>
  <path class="fil23" d="M-4348 4948l-1 0 1 0zm-1 0l-29 0 29 0zm-29 0l-3 0 3 0z"/>
  <path class="fil24" d="M-4268 4894c-10,0 -17,-7 -17,-16 0,-10 7,-16 17,-16 10,0 17,7 17,16 0,9 -7,16 -17,16zm0 -31c-9,0 -15,6 -15,15 0,8 6,15 15,15 9,0 15,-6 15,-15 0,-9 -7,-15 -15,-15z"/>
  <path class="fil25" d="M-4252 5014l-31 0 0 -109 31 0 0 109zm-29 -107l0 106 27 0 0 -106 -27 0z"/>
  <path class="fil26" d="M-4512 5528l0 -291 0 291zm0 -291l309 0 0 15 -293 0 0 0 -15 -15z"/>
  <path class="fil27" d="M-4497 5543l0 0 0 0 0 0zm0 0l-15 -15 0 -291 15 15 0 0 0 0 0 291z"/>
  <path class="fil28" d="M-4183 5543l-298 0 0 -291 298 0 0 291zm-298 -291l-25 0 25 0zm-25 0l0 291 0 -291z"/>
  <g style="clip-path:url(#id23)">
   <image x="-4500" y="5249" width="29" height="296" xlink:href="PS_Images\PS_ImgID12.png"/>
  </g>
  <path class="fil29" d="M-4327 5371l0 -16c0,3 1,5 1,8 0,3 0,6 -1,9zm-45 -55l-37 0c7,-1 15,-1 23,-1 5,0 10,0 14,1z"/>
  <path class="fil30" d="M-4254 5385l0 0 0 -27 -14 0c2,-1 4,-1 7,-1 3,0 4,0 7,1l1 0 0 27z"/>
  <g style="clip-path:url(#id24)">
   <image x="-4431" y="5315" width="105" height="153" xlink:href="PS_Images\PS_ImgID13.png"/>
  </g>
  <g style="clip-path:url(#id25)">
   <image x="-4430" y="5317" width="100" height="150" xlink:href="PS_Images\PS_ImgID14.png"/>
  </g>
  <path class="fil31" d="M-4400 5467l-30 0 0 -147 2 0c11,-2 25,-3 41,-3 19,0 34,4 44,12 9,8 15,20 15,34 0,14 -4,26 -13,34 -11,11 -27,16 -47,16 -3,0 -7,0 -11,-1l0 55zm12 -149c-16,0 -29,1 -41,3l0 0 0 144 27 0 0 -55 2 0c4,1 7,1 11,1 20,0 36,-5 46,-16 8,-8 12,-19 12,-33 0,-13 -5,-25 -14,-32 -9,-8 -24,-12 -43,-12z"/>
  <g style="clip-path:url(#id26)">
   <image x="-4399" y="5341" width="41" height="47" xlink:href="PS_Images\PS_ImgID15.png"/>
  </g>
  <g style="clip-path:url(#id27)">
   <image x="-4401" y="5340" width="43" height="50" xlink:href="PS_Images\PS_ImgID16.png"/>
  </g>
  <g style="clip-path:url(#id28)">
   <image x="-4319" y="5356" width="66" height="112" xlink:href="PS_Images\PS_ImgID17.png"/>
  </g>
  <g style="clip-path:url(#id29)">
   <image x="-4318" y="5359" width="62" height="108" xlink:href="PS_Images\PS_ImgID18.png"/>
  </g>
  <path class="fil32" d="M-4288 5467l-29 0 0 -72c0,-14 0,-25 -1,-34l25 0 1 20 1 0c5,-15 18,-23 29,-23 3,0 4,0 6,1l0 25c-2,0 -5,-1 -8,-1 -13,0 -22,8 -24,20 0,2 -1,5 -1,8l0 55zm-28 -105c1,8 1,18 1,33l0 71 26 0 0 -54c0,-3 0,-6 1,-8 3,-13 12,-22 26,-22 2,0 4,0 6,0l0 -22c-1,0 -3,0 -5,0 -9,0 -22,6 -28,21l0 1 -1 0 -1 0 -2 0 0 -2 -1 -19 -22 0z"/>
  <circle class="fil33 str1" cx="-4342" cy="3591" r="177"/>
 </g>
</svg>
